G04 Layer_Color=16711935*
%FSTAX44Y44*%
%MOMM*%
G71*
G01*
G75*
%ADD10C,2.0000*%
%ADD11C,1.0000*%
D10*
X01799896Y001985D02*
D03*
X00000104Y0019875D02*
D03*
X018Y-0219675D02*
D03*
D11*
X0147775Y-0191025D02*
Y-019095D01*
X0149075D02*
X0147775D01*
X0149075Y-0191025D02*
Y-019095D01*
X01487013Y-01893259D02*
X01481487D01*
X0149075Y-0188814D02*
Y-0188225D01*
X01487013Y-01893259D02*
X0149075Y-0188814D01*
X01481487Y-01893259D02*
X0147775Y-0188814D01*
X0149075Y-0191025D02*
X0147775D01*
Y-0188814D02*
Y-0188225D01*
X0149075D02*
X0147775D01*
X0136275Y-0178675D02*
Y-01786D01*
X0137575D02*
X0136275D01*
X0137575Y-0178675D02*
Y-01786D01*
X01372013Y-01769759D02*
X01366487D01*
X0137575Y-0176464D02*
Y-0175875D01*
X01372013Y-01769759D02*
X0137575Y-0176464D01*
X01366487Y-01769759D02*
X0136275Y-0176464D01*
X0137575Y-0178675D02*
X0136275D01*
Y-0176464D02*
Y-0175875D01*
X0137575D02*
X0136275D01*
Y-0203375D02*
Y-02033D01*
X0137575D02*
X0136275D01*
X0137575Y-0203375D02*
Y-02033D01*
X01372013Y-02016759D02*
X01366487D01*
X0137575Y-0201164D02*
Y-0200575D01*
X01372013Y-02016759D02*
X0137575Y-0201164D01*
X01366487Y-02016759D02*
X0136275Y-0201164D01*
X0137575Y-0203375D02*
X0136275D01*
Y-0201164D02*
Y-0200575D01*
X0137575D02*
X0136275D01*
X0124775Y-0191025D02*
Y-019095D01*
X0126075D02*
X0124775D01*
X0126075Y-0191025D02*
Y-019095D01*
X01257013Y-01893259D02*
X01251487D01*
X0126075Y-0188814D02*
Y-0188225D01*
X01257013Y-01893259D02*
X0126075Y-0188814D01*
X01251487Y-01893259D02*
X0124775Y-0188814D01*
X0126075Y-0191025D02*
X0124775D01*
Y-0188814D02*
Y-0188225D01*
X0126075D02*
X0124775D01*
Y-0215725D02*
Y-021565D01*
X0126075D02*
X0124775D01*
X0126075Y-0215725D02*
Y-021565D01*
X01257013Y-02140259D02*
X01251487D01*
X0126075Y-0213514D02*
Y-0212925D01*
X01257013Y-02140259D02*
X0126075Y-0213514D01*
X01251487Y-02140259D02*
X0124775Y-0213514D01*
X0126075Y-0215725D02*
X0124775D01*
Y-0213514D02*
Y-0212925D01*
X0126075D02*
X0124775D01*
X0113275Y-0203375D02*
Y-02033D01*
X0114575D02*
X0113275D01*
X0114575Y-0203375D02*
Y-02033D01*
X01142013Y-02016759D02*
X01136487D01*
X0114575Y-0201164D02*
Y-0200575D01*
X01142013Y-02016759D02*
X0114575Y-0201164D01*
X01136487Y-02016759D02*
X0113275Y-0201164D01*
X0114575Y-0203375D02*
X0113275D01*
Y-0201164D02*
Y-0200575D01*
X0114575D02*
X0113275D01*
Y-0228075D02*
Y-0228D01*
X0114575D02*
X0113275D01*
X0114575Y-0228075D02*
Y-0228D01*
X01142013Y-02263759D02*
X01136487D01*
X0114575Y-0225864D02*
Y-0225275D01*
X01142013Y-02263759D02*
X0114575Y-0225864D01*
X01136487Y-02263759D02*
X0113275Y-0225864D01*
X0114575Y-0228075D02*
X0113275D01*
Y-0225864D02*
Y-0225275D01*
X0114575D02*
X0113275D01*
X0090275Y-0153975D02*
Y-01539D01*
X0091575D02*
X0090275D01*
X0091575Y-0153975D02*
Y-01539D01*
X00912013Y-01522759D02*
X00906487D01*
X0091575Y-0151764D02*
Y-0151175D01*
X00912013Y-01522759D02*
X0091575Y-0151764D01*
X00906487Y-01522759D02*
X0090275Y-0151764D01*
X0091575Y-0153975D02*
X0090275D01*
Y-0151764D02*
Y-0151175D01*
X0091575D02*
X0090275D01*
X0101775Y-0166325D02*
Y-016625D01*
X0103075D02*
X0101775D01*
X0103075Y-0166325D02*
Y-016625D01*
X01027013Y-01646259D02*
X01021487D01*
X0103075Y-0164114D02*
Y-0163525D01*
X01027013Y-01646259D02*
X0103075Y-0164114D01*
X01021487Y-01646259D02*
X0101775Y-0164114D01*
X0103075Y-0166325D02*
X0101775D01*
Y-0164114D02*
Y-0163525D01*
X0103075D02*
X0101775D01*
X0090275Y-0178675D02*
Y-01786D01*
X0091575D02*
X0090275D01*
X0091575Y-0178675D02*
Y-01786D01*
X00912013Y-01769759D02*
X00906487D01*
X0091575Y-0176464D02*
Y-0175875D01*
X00912013Y-01769759D02*
X0091575Y-0176464D01*
X00906487Y-01769759D02*
X0090275Y-0176464D01*
X0091575Y-0178675D02*
X0090275D01*
Y-0176464D02*
Y-0175875D01*
X0091575D02*
X0090275D01*
X0101775Y-0191025D02*
Y-019095D01*
X0103075D02*
X0101775D01*
X0103075Y-0191025D02*
Y-019095D01*
X01027013Y-01893259D02*
X01021487D01*
X0103075Y-0188814D02*
Y-0188225D01*
X01027013Y-01893259D02*
X0103075Y-0188814D01*
X01021487Y-01893259D02*
X0101775Y-0188814D01*
X0103075Y-0191025D02*
X0101775D01*
Y-0188814D02*
Y-0188225D01*
X0103075D02*
X0101775D01*
X0090275Y-0203375D02*
Y-02033D01*
X0091575D02*
X0090275D01*
X0091575Y-0203375D02*
Y-02033D01*
X00912013Y-02016759D02*
X00906487D01*
X0091575Y-0201164D02*
Y-0200575D01*
X00912013Y-02016759D02*
X0091575Y-0201164D01*
X00906487Y-02016759D02*
X0090275Y-0201164D01*
X0091575Y-0203375D02*
X0090275D01*
Y-0201164D02*
Y-0200575D01*
X0091575D02*
X0090275D01*
X0101775Y-0215725D02*
Y-021565D01*
X0103075D02*
X0101775D01*
X0103075Y-0215725D02*
Y-021565D01*
X01027013Y-02140259D02*
X01021487D01*
X0103075Y-0213514D02*
Y-0212925D01*
X01027013Y-02140259D02*
X0103075Y-0213514D01*
X01021487Y-02140259D02*
X0101775Y-0213514D01*
X0103075Y-0215725D02*
X0101775D01*
Y-0213514D02*
Y-0212925D01*
X0103075D02*
X0101775D01*
X0090275Y-0228075D02*
Y-0228D01*
X0091575D02*
X0090275D01*
X0091575Y-0228075D02*
Y-0228D01*
X00912013Y-02263759D02*
X00906487D01*
X0091575Y-0225864D02*
Y-0225275D01*
X00912013Y-02263759D02*
X0091575Y-0225864D01*
X00906487Y-02263759D02*
X0090275Y-0225864D01*
X0091575Y-0228075D02*
X0090275D01*
Y-0225864D02*
Y-0225275D01*
X0091575D02*
X0090275D01*
X0032775Y-0191025D02*
Y-019095D01*
X0034075D02*
X0032775D01*
X0034075Y-0191025D02*
Y-019095D01*
X00337013Y-01893259D02*
X00331487D01*
X0034075Y-0188814D02*
Y-0188225D01*
X00337013Y-01893259D02*
X0034075Y-0188814D01*
X00331487Y-01893259D02*
X0032775Y-0188814D01*
X0034075Y-0191025D02*
X0032775D01*
Y-0188814D02*
Y-0188225D01*
X0034075D02*
X0032775D01*
X0044275Y-0178675D02*
Y-01786D01*
X0045575D02*
X0044275D01*
X0045575Y-0178675D02*
Y-01786D01*
X00452013Y-01769759D02*
X00446487D01*
X0045575Y-0176464D02*
Y-0175875D01*
X00452013Y-01769759D02*
X0045575Y-0176464D01*
X00446487Y-01769759D02*
X0044275Y-0176464D01*
X0045575Y-0178675D02*
X0044275D01*
Y-0176464D02*
Y-0175875D01*
X0045575D02*
X0044275D01*
Y-0203375D02*
Y-02033D01*
X0045575D02*
X0044275D01*
X0045575Y-0203375D02*
Y-02033D01*
X00452013Y-02016759D02*
X00446487D01*
X0045575Y-0201164D02*
Y-0200575D01*
X00452013Y-02016759D02*
X0045575Y-0201164D01*
X00446487Y-02016759D02*
X0044275Y-0201164D01*
X0045575Y-0203375D02*
X0044275D01*
Y-0201164D02*
Y-0200575D01*
X0045575D02*
X0044275D01*
X0055775Y-0191025D02*
Y-019095D01*
X0057075D02*
X0055775D01*
X0057075Y-0191025D02*
Y-019095D01*
X00567013Y-01893259D02*
X00561487D01*
X0057075Y-0188814D02*
Y-0188225D01*
X00567013Y-01893259D02*
X0057075Y-0188814D01*
X00561487Y-01893259D02*
X0055775Y-0188814D01*
X0057075Y-0191025D02*
X0055775D01*
Y-0188814D02*
Y-0188225D01*
X0057075D02*
X0055775D01*
Y-0215725D02*
Y-021565D01*
X0057075D02*
X0055775D01*
X0057075Y-0215725D02*
Y-021565D01*
X00567013Y-02140259D02*
X00561487D01*
X0057075Y-0213514D02*
Y-0212925D01*
X00567013Y-02140259D02*
X0057075Y-0213514D01*
X00561487Y-02140259D02*
X0055775Y-0213514D01*
X0057075Y-0215725D02*
X0055775D01*
Y-0213514D02*
Y-0212925D01*
X0057075D02*
X0055775D01*
X0067275Y-0203375D02*
Y-02033D01*
X0068575D02*
X0067275D01*
X0068575Y-0203375D02*
Y-02033D01*
X00682013Y-02016759D02*
X00676487D01*
X0068575Y-0201164D02*
Y-0200575D01*
X00682013Y-02016759D02*
X0068575Y-0201164D01*
X00676487Y-02016759D02*
X0067275Y-0201164D01*
X0068575Y-0203375D02*
X0067275D01*
Y-0201164D02*
Y-0200575D01*
X0068575D02*
X0067275D01*
Y-0228075D02*
Y-0228D01*
X0068575D02*
X0067275D01*
X0068575Y-0228075D02*
Y-0228D01*
X00682013Y-02263759D02*
X00676487D01*
X0068575Y-0225864D02*
Y-0225275D01*
X00682013Y-02263759D02*
X0068575Y-0225864D01*
X00676487Y-02263759D02*
X0067275Y-0225864D01*
X0068575Y-0228075D02*
X0067275D01*
Y-0225864D02*
Y-0225275D01*
X0068575D02*
X0067275D01*
X0114575Y-01759D02*
Y-0175825D01*
Y-01759D02*
X0113275D01*
Y-0175825D01*
X01142013Y-0177524D02*
X01136487D01*
X0113275Y-0178625D02*
Y-0178036D01*
X01136487Y-0177524D01*
X0114575Y-0178036D02*
X01142013Y-0177524D01*
X0114575Y-0175825D02*
X0113275D01*
X0114575Y-0178625D02*
Y-0178036D01*
Y-0178625D02*
X0113275D01*
X0114575Y-01512D02*
Y-0151125D01*
Y-01512D02*
X0113275D01*
Y-0151125D01*
X01142013Y-0152824D02*
X01136487D01*
X0113275Y-0153925D02*
Y-0153336D01*
X01136487Y-0152824D01*
X0114575Y-0153336D02*
X01142013Y-0152824D01*
X0114575Y-0151125D02*
X0113275D01*
X0114575Y-0153925D02*
Y-0153336D01*
Y-0153925D02*
X0113275D01*
X0126075Y-016355D02*
Y-0163475D01*
Y-016355D02*
X0124775D01*
Y-0163475D01*
X01257013Y-0165174D02*
X01251487D01*
X0124775Y-0166275D02*
Y-01656859D01*
X01251487Y-0165174D01*
X0126075Y-01656859D02*
X01257013Y-0165174D01*
X0126075Y-0163475D02*
X0124775D01*
X0126075Y-0166275D02*
Y-01656859D01*
Y-0166275D02*
X0124775D01*
X0126075Y-013885D02*
Y-0138775D01*
Y-013885D02*
X0124775D01*
Y-0138775D01*
X01257013Y-0140474D02*
X01251487D01*
X0124775Y-0141575D02*
Y-0140986D01*
X01251487Y-0140474D01*
X0126075Y-0140986D02*
X01257013Y-0140474D01*
X0126075Y-0138775D02*
X0124775D01*
X0126075Y-0141575D02*
Y-0140986D01*
Y-0141575D02*
X0124775D01*
X0114575Y-01265D02*
Y-0126425D01*
Y-01265D02*
X0113275D01*
Y-0126425D01*
X01142013Y-0128124D02*
X01136487D01*
X0113275Y-0129225D02*
Y-0128636D01*
X01136487Y-0128124D01*
X0114575Y-0128636D02*
X01142013Y-0128124D01*
X0114575Y-0126425D02*
X0113275D01*
X0114575Y-0129225D02*
Y-0128636D01*
Y-0129225D02*
X0113275D01*
X0114575Y-01018D02*
Y-0101725D01*
Y-01018D02*
X0113275D01*
Y-0101725D01*
X01142013Y-0103424D02*
X01136487D01*
X0113275Y-0104525D02*
Y-0103936D01*
X01136487Y-0103424D01*
X0114575Y-0103936D02*
X01142013Y-0103424D01*
X0114575Y-0101725D02*
X0113275D01*
X0114575Y-0104525D02*
Y-0103936D01*
Y-0104525D02*
X0113275D01*
X0126075Y-011415D02*
Y-0114075D01*
Y-011415D02*
X0124775D01*
Y-0114075D01*
X01257013Y-0115774D02*
X01251487D01*
X0124775Y-0116875D02*
Y-01162859D01*
X01251487Y-0115774D01*
X0126075Y-01162859D02*
X01257013Y-0115774D01*
X0126075Y-0114075D02*
X0124775D01*
X0126075Y-0116875D02*
Y-01162859D01*
Y-0116875D02*
X0124775D01*
X0126075Y-008945D02*
Y-0089375D01*
Y-008945D02*
X0124775D01*
Y-0089375D01*
X01257013Y-0091074D02*
X01251487D01*
X0124775Y-0092175D02*
Y-0091586D01*
X01251487Y-0091074D01*
X0126075Y-0091586D02*
X01257013Y-0091074D01*
X0126075Y-0089375D02*
X0124775D01*
X0126075Y-0092175D02*
Y-0091586D01*
Y-0092175D02*
X0124775D01*
X0114575Y-00771D02*
Y-0077025D01*
Y-00771D02*
X0113275D01*
Y-0077025D01*
X01142013Y-0078724D02*
X01136487D01*
X0113275Y-0079825D02*
Y-0079236D01*
X01136487Y-0078724D01*
X0114575Y-0079236D02*
X01142013Y-0078724D01*
X0114575Y-0077025D02*
X0113275D01*
X0114575Y-0079825D02*
Y-0079236D01*
Y-0079825D02*
X0113275D01*
X0137575Y-01018D02*
Y-0101725D01*
Y-01018D02*
X0136275D01*
Y-0101725D01*
X01372013Y-0103424D02*
X01366487D01*
X0136275Y-0104525D02*
Y-0103936D01*
X01366487Y-0103424D01*
X0137575Y-0103936D02*
X01372013Y-0103424D01*
X0137575Y-0101725D02*
X0136275D01*
X0137575Y-0104525D02*
Y-0103936D01*
Y-0104525D02*
X0136275D01*
X0126075Y-006475D02*
Y-0064675D01*
Y-006475D02*
X0124775D01*
Y-0064675D01*
X01257013Y-0066374D02*
X01251487D01*
X0124775Y-0067475D02*
Y-0066886D01*
X01251487Y-0066374D01*
X0126075Y-0066886D02*
X01257013Y-0066374D01*
X0126075Y-0064675D02*
X0124775D01*
X0126075Y-0067475D02*
Y-0066886D01*
Y-0067475D02*
X0124775D01*
X0137575Y-00771D02*
Y-0077025D01*
Y-00771D02*
X0136275D01*
Y-0077025D01*
X01372013Y-0078724D02*
X01366487D01*
X0136275Y-0079825D02*
Y-00792359D01*
X01366487Y-0078724D01*
X0137575Y-00792359D02*
X01372013Y-0078724D01*
X0137575Y-0077025D02*
X0136275D01*
X0137575Y-0079825D02*
Y-00792359D01*
Y-0079825D02*
X0136275D01*
X0114575Y-00277D02*
Y-0027625D01*
Y-00277D02*
X0113275D01*
Y-0027625D01*
X01142013Y-00293241D02*
X01136487D01*
X0113275Y-0030425D02*
Y-0029836D01*
X01136487Y-00293241D01*
X0114575Y-0029836D02*
X01142013Y-00293241D01*
X0114575Y-0027625D02*
X0113275D01*
X0114575Y-0030425D02*
Y-0029836D01*
Y-0030425D02*
X0113275D01*
X0114575Y-00524D02*
Y-0052325D01*
Y-00524D02*
X0113275D01*
Y-0052325D01*
X01142013Y-0054024D02*
X01136487D01*
X0113275Y-0055125D02*
Y-0054536D01*
X01136487Y-0054024D01*
X0114575Y-0054536D02*
X01142013Y-0054024D01*
X0114575Y-0052325D02*
X0113275D01*
X0114575Y-0055125D02*
Y-0054536D01*
Y-0055125D02*
X0113275D01*
X0126075Y-001535D02*
Y-0015275D01*
Y-001535D02*
X0124775D01*
Y-0015275D01*
X01257013Y-0016974D02*
X01251487D01*
X0124775Y-0018075D02*
Y-00174859D01*
X01251487Y-0016974D01*
X0126075Y-00174859D02*
X01257013Y-0016974D01*
X0126075Y-0015275D02*
X0124775D01*
X0126075Y-0018075D02*
Y-00174859D01*
Y-0018075D02*
X0124775D01*
X0126075Y-004005D02*
Y-0039975D01*
Y-004005D02*
X0124775D01*
Y-0039975D01*
X01257013Y-0041674D02*
X01251487D01*
X0124775Y-0042775D02*
Y-0042186D01*
X01251487Y-0041674D01*
X0126075Y-0042186D02*
X01257013Y-0041674D01*
X0126075Y-0039975D02*
X0124775D01*
X0126075Y-0042775D02*
Y-0042186D01*
Y-0042775D02*
X0124775D01*
X0126075Y000935D02*
Y0009425D01*
Y000935D02*
X0124775D01*
Y0009425D01*
X01257013Y0007726D02*
X01251487D01*
X0124775Y0006625D02*
Y0007214D01*
X01251487Y0007726D01*
X0126075Y0007214D02*
X01257013Y0007726D01*
X0126075Y0009425D02*
X0124775D01*
X0126075Y0006625D02*
Y0007214D01*
Y0006625D02*
X0124775D01*
X0114575Y-0003D02*
Y-0002925D01*
Y-0003D02*
X0113275D01*
Y-0002925D01*
X01142013Y-0004624D02*
X01136487D01*
X0113275Y-0005725D02*
Y-0005136D01*
X01136487Y-0004624D01*
X0114575Y-0005136D02*
X01142013Y-0004624D01*
X0114575Y-0002925D02*
X0113275D01*
X0114575Y-0005725D02*
Y-0005136D01*
Y-0005725D02*
X0113275D01*
X0147775Y-0018125D02*
Y-001805D01*
X0149075D02*
X0147775D01*
X0149075Y-0018125D02*
Y-001805D01*
X01487013Y-00164259D02*
X01481487D01*
X0149075Y-0015914D02*
Y-0015325D01*
X01487013Y-00164259D02*
X0149075Y-0015914D01*
X01481487Y-00164259D02*
X0147775Y-0015914D01*
X0149075Y-0018125D02*
X0147775D01*
Y-0015914D02*
Y-0015325D01*
X0149075D02*
X0147775D01*
X0136275Y-0005775D02*
Y-00057D01*
X0137575D02*
X0136275D01*
X0137575Y-0005775D02*
Y-00057D01*
X01372013Y-00040759D02*
X01366487D01*
X0137575Y-0003564D02*
Y-0002975D01*
X01372013Y-00040759D02*
X0137575Y-0003564D01*
X01366487Y-00040759D02*
X0136275Y-0003564D01*
X0137575Y-0005775D02*
X0136275D01*
Y-0003564D02*
Y-0002975D01*
X0137575D02*
X0136275D01*
X0147775Y-0042825D02*
Y-004275D01*
X0149075D02*
X0147775D01*
X0149075Y-0042825D02*
Y-004275D01*
X01487013Y-00411259D02*
X01481487D01*
X0149075Y-0040614D02*
Y-0040025D01*
X01487013Y-00411259D02*
X0149075Y-0040614D01*
X01481487Y-00411259D02*
X0147775Y-0040614D01*
X0149075Y-0042825D02*
X0147775D01*
Y-0040614D02*
Y-0040025D01*
X0149075D02*
X0147775D01*
X0136275Y-0030475D02*
Y-00304D01*
X0137575D02*
X0136275D01*
X0137575Y-0030475D02*
Y-00304D01*
X01372013Y-00287759D02*
X01366487D01*
X0137575Y-0028264D02*
Y-0027675D01*
X01372013Y-00287759D02*
X0137575Y-0028264D01*
X01366487Y-00287759D02*
X0136275Y-0028264D01*
X0137575Y-0030475D02*
X0136275D01*
Y-0028264D02*
Y-0027675D01*
X0137575D02*
X0136275D01*
X0147775Y-0067525D02*
Y-006745D01*
X0149075D02*
X0147775D01*
X0149075Y-0067525D02*
Y-006745D01*
X01487013Y-00658259D02*
X01481487D01*
X0149075Y-0065314D02*
Y-0064725D01*
X01487013Y-00658259D02*
X0149075Y-0065314D01*
X01481487Y-00658259D02*
X0147775Y-0065314D01*
X0149075Y-0067525D02*
X0147775D01*
Y-0065314D02*
Y-0064725D01*
X0149075D02*
X0147775D01*
X0136275Y-0055175D02*
Y-00551D01*
X0137575D02*
X0136275D01*
X0137575Y-0055175D02*
Y-00551D01*
X01372013Y-00534759D02*
X01366487D01*
X0137575Y-0052964D02*
Y-0052375D01*
X01372013Y-00534759D02*
X0137575Y-0052964D01*
X01366487Y-00534759D02*
X0136275Y-0052964D01*
X0137575Y-0055175D02*
X0136275D01*
Y-0052964D02*
Y-0052375D01*
X0137575D02*
X0136275D01*
X0147775Y-0092225D02*
Y-009215D01*
X0149075D02*
X0147775D01*
X0149075Y-0092225D02*
Y-009215D01*
X01487013Y-00905259D02*
X01481487D01*
X0149075Y-0090014D02*
Y-0089425D01*
X01487013Y-00905259D02*
X0149075Y-0090014D01*
X01481487Y-00905259D02*
X0147775Y-0090014D01*
X0149075Y-0092225D02*
X0147775D01*
Y-0090014D02*
Y-0089425D01*
X0149075D02*
X0147775D01*
X0159275Y-0079875D02*
Y-00798D01*
X0160575D02*
X0159275D01*
X0160575Y-0079875D02*
Y-00798D01*
X01602013Y-00781759D02*
X01596487D01*
X0160575Y-0077664D02*
Y-0077075D01*
X01602013Y-00781759D02*
X0160575Y-0077664D01*
X01596487Y-00781759D02*
X0159275Y-0077664D01*
X0160575Y-0079875D02*
X0159275D01*
Y-0077664D02*
Y-0077075D01*
X0160575D02*
X0159275D01*
Y-0129275D02*
Y-01292D01*
X0160575D02*
X0159275D01*
X0160575Y-0129275D02*
Y-01292D01*
X01602013Y-01275759D02*
X01596487D01*
X0160575Y-0127064D02*
Y-0126475D01*
X01602013Y-01275759D02*
X0160575Y-0127064D01*
X01596487Y-01275759D02*
X0159275Y-0127064D01*
X0160575Y-0129275D02*
X0159275D01*
Y-0127064D02*
Y-0126475D01*
X0160575D02*
X0159275D01*
Y-0104575D02*
Y-01045D01*
X0160575D02*
X0159275D01*
X0160575Y-0104575D02*
Y-01045D01*
X01602013Y-01028759D02*
X01596487D01*
X0160575Y-0102364D02*
Y-0101775D01*
X01602013Y-01028759D02*
X0160575Y-0102364D01*
X01596487Y-01028759D02*
X0159275Y-0102364D01*
X0160575Y-0104575D02*
X0159275D01*
Y-0102364D02*
Y-0101775D01*
X0160575D02*
X0159275D01*
X0147775Y-0141625D02*
Y-014155D01*
X0149075D02*
X0147775D01*
X0149075Y-0141625D02*
Y-014155D01*
X01487013Y-01399259D02*
X01481487D01*
X0149075Y-0139414D02*
Y-0138825D01*
X01487013Y-01399259D02*
X0149075Y-0139414D01*
X01481487Y-01399259D02*
X0147775Y-0139414D01*
X0149075Y-0141625D02*
X0147775D01*
Y-0139414D02*
Y-0138825D01*
X0149075D02*
X0147775D01*
Y-0116925D02*
Y-011685D01*
X0149075D02*
X0147775D01*
X0149075Y-0116925D02*
Y-011685D01*
X01487013Y-01152259D02*
X01481487D01*
X0149075Y-0114714D02*
Y-0114125D01*
X01487013Y-01152259D02*
X0149075Y-0114714D01*
X01481487Y-01152259D02*
X0147775Y-0114714D01*
X0149075Y-0116925D02*
X0147775D01*
Y-0114714D02*
Y-0114125D01*
X0149075D02*
X0147775D01*
X0136275Y-0153975D02*
Y-01539D01*
X0137575D02*
X0136275D01*
X0137575Y-0153975D02*
Y-01539D01*
X01372013Y-01522759D02*
X01366487D01*
X0137575Y-0151764D02*
Y-0151175D01*
X01372013Y-01522759D02*
X0137575Y-0151764D01*
X01366487Y-01522759D02*
X0136275Y-0151764D01*
X0137575Y-0153975D02*
X0136275D01*
Y-0151764D02*
Y-0151175D01*
X0137575D02*
X0136275D01*
Y-0129275D02*
Y-01292D01*
X0137575D02*
X0136275D01*
X0137575Y-0129275D02*
Y-01292D01*
X01372013Y-01275759D02*
X01366487D01*
X0137575Y-0127064D02*
Y-0126475D01*
X01372013Y-01275759D02*
X0137575Y-0127064D01*
X01366487Y-01275759D02*
X0136275Y-0127064D01*
X0137575Y-0129275D02*
X0136275D01*
Y-0127064D02*
Y-0126475D01*
X0137575D02*
X0136275D01*
X0147775Y-0166325D02*
Y-016625D01*
X0149075D02*
X0147775D01*
X0149075Y-0166325D02*
Y-016625D01*
X01487013Y-01646259D02*
X01481487D01*
X0149075Y-0164114D02*
Y-0163525D01*
X01487013Y-01646259D02*
X0149075Y-0164114D01*
X01481487Y-01646259D02*
X0147775Y-0164114D01*
X0149075Y-0166325D02*
X0147775D01*
Y-0164114D02*
Y-0163525D01*
X0149075D02*
X0147775D01*
X0080075Y-018825D02*
Y-0188175D01*
Y-018825D02*
X0078775D01*
Y-0188175D01*
X00797013Y-0189874D02*
X00791487D01*
X0078775Y-0190975D02*
Y-0190386D01*
X00791487Y-0189874D01*
X0080075Y-0190386D02*
X00797013Y-0189874D01*
X0080075Y-0188175D02*
X0078775D01*
X0080075Y-0190975D02*
Y-0190386D01*
Y-0190975D02*
X0078775D01*
X0080075Y-021295D02*
Y-0212875D01*
Y-021295D02*
X0078775D01*
Y-0212875D01*
X00797013Y-0214574D02*
X00791487D01*
X0078775Y-0215675D02*
Y-0215086D01*
X00791487Y-0214574D01*
X0080075Y-0215086D02*
X00797013Y-0214574D01*
X0080075Y-0212875D02*
X0078775D01*
X0080075Y-0215675D02*
Y-0215086D01*
Y-0215675D02*
X0078775D01*
X0080075Y-013885D02*
Y-0138775D01*
Y-013885D02*
X0078775D01*
Y-0138775D01*
X00797013Y-0140474D02*
X00791487D01*
X0078775Y-0141575D02*
Y-0140986D01*
X00791487Y-0140474D01*
X0080075Y-0140986D02*
X00797013Y-0140474D01*
X0080075Y-0138775D02*
X0078775D01*
X0080075Y-0141575D02*
Y-0140986D01*
Y-0141575D02*
X0078775D01*
X0080075Y-016355D02*
Y-0163475D01*
Y-016355D02*
X0078775D01*
Y-0163475D01*
X00797013Y-0165174D02*
X00791487D01*
X0078775Y-0166275D02*
Y-01656859D01*
X00791487Y-0165174D01*
X0080075Y-01656859D02*
X00797013Y-0165174D01*
X0080075Y-0163475D02*
X0078775D01*
X0080075Y-0166275D02*
Y-01656859D01*
Y-0166275D02*
X0078775D01*
X0080075Y-008945D02*
Y-0089375D01*
Y-008945D02*
X0078775D01*
Y-0089375D01*
X00797013Y-0091074D02*
X00791487D01*
X0078775Y-0092175D02*
Y-0091586D01*
X00791487Y-0091074D01*
X0080075Y-0091586D02*
X00797013Y-0091074D01*
X0080075Y-0089375D02*
X0078775D01*
X0080075Y-0092175D02*
Y-0091586D01*
Y-0092175D02*
X0078775D01*
X0080075Y-011415D02*
Y-0114075D01*
Y-011415D02*
X0078775D01*
Y-0114075D01*
X00797013Y-0115774D02*
X00791487D01*
X0078775Y-0116875D02*
Y-01162859D01*
X00791487Y-0115774D01*
X0080075Y-01162859D02*
X00797013Y-0115774D01*
X0080075Y-0114075D02*
X0078775D01*
X0080075Y-0116875D02*
Y-01162859D01*
Y-0116875D02*
X0078775D01*
X0080075Y-004005D02*
Y-0039975D01*
Y-004005D02*
X0078775D01*
Y-0039975D01*
X00797013Y-0041674D02*
X00791487D01*
X0078775Y-0042775D02*
Y-0042186D01*
X00791487Y-0041674D01*
X0080075Y-0042186D02*
X00797013Y-0041674D01*
X0080075Y-0039975D02*
X0078775D01*
X0080075Y-0042775D02*
Y-0042186D01*
Y-0042775D02*
X0078775D01*
X0080075Y-006475D02*
Y-0064675D01*
Y-006475D02*
X0078775D01*
Y-0064675D01*
X00797013Y-0066374D02*
X00791487D01*
X0078775Y-0067475D02*
Y-0066886D01*
X00791487Y-0066374D01*
X0080075Y-0066886D02*
X00797013Y-0066374D01*
X0080075Y-0064675D02*
X0078775D01*
X0080075Y-0067475D02*
Y-0066886D01*
Y-0067475D02*
X0078775D01*
X0080075Y000935D02*
Y0009425D01*
Y000935D02*
X0078775D01*
Y0009425D01*
X00797013Y0007726D02*
X00791487D01*
X0078775Y0006625D02*
Y0007214D01*
X00791487Y0007726D01*
X0080075Y0007214D02*
X00797013Y0007726D01*
X0080075Y0009425D02*
X0078775D01*
X0080075Y0006625D02*
Y0007214D01*
Y0006625D02*
X0078775D01*
X0080075Y-001535D02*
Y-0015275D01*
Y-001535D02*
X0078775D01*
Y-0015275D01*
X00797013Y-0016974D02*
X00791487D01*
X0078775Y-0018075D02*
Y-00174859D01*
X00791487Y-0016974D01*
X0080075Y-00174859D02*
X00797013Y-0016974D01*
X0080075Y-0015275D02*
X0078775D01*
X0080075Y-0018075D02*
Y-00174859D01*
Y-0018075D02*
X0078775D01*
X0091575Y00217D02*
Y0021775D01*
Y00217D02*
X0090275D01*
Y0021775D01*
X00912013Y0020076D02*
X00906487D01*
X0090275Y0018975D02*
Y00195641D01*
X00906487Y0020076D01*
X0091575Y00195641D02*
X00912013Y0020076D01*
X0091575Y0021775D02*
X0090275D01*
X0091575Y0018975D02*
Y00195641D01*
Y0018975D02*
X0090275D01*
X0068575Y00217D02*
Y0021775D01*
Y00217D02*
X0067275D01*
Y0021775D01*
X00682013Y0020076D02*
X00676487D01*
X0067275Y0018975D02*
Y00195641D01*
X00676487Y0020076D01*
X0068575Y00195641D02*
X00682013Y0020076D01*
X0068575Y0021775D02*
X0067275D01*
X0068575Y0018975D02*
Y00195641D01*
Y0018975D02*
X0067275D01*
X0057075Y003405D02*
Y0034125D01*
Y003405D02*
X0055775D01*
Y0034125D01*
X00567013Y0032426D02*
X00561487D01*
X0055775Y0031325D02*
Y0031914D01*
X00561487Y0032426D01*
X0057075Y0031914D02*
X00567013Y0032426D01*
X0057075Y0034125D02*
X0055775D01*
X0057075Y0031325D02*
Y0031914D01*
Y0031325D02*
X0055775D01*
X0080075Y003405D02*
Y0034125D01*
Y003405D02*
X0078775D01*
Y0034125D01*
X00797013Y0032426D02*
X00791487D01*
X0078775Y0031325D02*
Y0031914D01*
X00791487Y0032426D01*
X0080075Y0031914D02*
X00797013Y0032426D01*
X0080075Y0034125D02*
X0078775D01*
X0080075Y0031325D02*
Y0031914D01*
Y0031325D02*
X0078775D01*
X0068575Y00464D02*
Y0046475D01*
Y00464D02*
X0067275D01*
Y0046475D01*
X00682013Y0044776D02*
X00676487D01*
X0067275Y0043675D02*
Y0044264D01*
X00676487Y0044776D01*
X0068575Y0044264D02*
X00682013Y0044776D01*
X0068575Y0046475D02*
X0067275D01*
X0068575Y0043675D02*
Y0044264D01*
Y0043675D02*
X0067275D01*
X009165Y004615D02*
Y0046225D01*
Y004615D02*
X009035D01*
Y0046225D01*
X00912763Y0044526D02*
X00907237D01*
X009035Y0043425D02*
Y0044014D01*
X00907237Y0044526D01*
X009165Y0044014D02*
X00912763Y0044526D01*
X009165Y0046225D02*
X009035D01*
X009165Y0043425D02*
Y0044014D01*
Y0043425D02*
X009035D01*
X0101775Y0031275D02*
Y003135D01*
X0103075D02*
X0101775D01*
X0103075Y0031275D02*
Y003135D01*
X01027013Y00329741D02*
X01021487D01*
X0103075Y0033486D02*
Y0034075D01*
X01027013Y00329741D02*
X0103075Y0033486D01*
X01021487Y00329741D02*
X0101775Y0033486D01*
X0103075Y0031275D02*
X0101775D01*
Y0033486D02*
Y0034075D01*
X0103075D02*
X0101775D01*
X0113275Y0043625D02*
Y00437D01*
X0114575D02*
X0113275D01*
X0114575Y0043625D02*
Y00437D01*
X01142013Y00453241D02*
X01136487D01*
X0114575Y0045836D02*
Y0046425D01*
X01142013Y00453241D02*
X0114575Y0045836D01*
X01136487Y00453241D02*
X0113275Y0045836D01*
X0114575Y0043625D02*
X0113275D01*
Y0045836D02*
Y0046425D01*
X0114575D02*
X0113275D01*
Y0018925D02*
Y0019D01*
X0114575D02*
X0113275D01*
X0114575Y0018925D02*
Y0019D01*
X01142013Y00206241D02*
X01136487D01*
X0114575Y0021136D02*
Y0021725D01*
X01142013Y00206241D02*
X0114575Y0021136D01*
X01136487Y00206241D02*
X0113275Y0021136D01*
X0114575Y0018925D02*
X0113275D01*
Y0021136D02*
Y0021725D01*
X0114575D02*
X0113275D01*
X0124775Y0031275D02*
Y003135D01*
X0126075D02*
X0124775D01*
X0126075Y0031275D02*
Y003135D01*
X01257013Y00329741D02*
X01251487D01*
X0126075Y0033486D02*
Y0034075D01*
X01257013Y00329741D02*
X0126075Y0033486D01*
X01251487Y00329741D02*
X0124775Y0033486D01*
X0126075Y0031275D02*
X0124775D01*
Y0033486D02*
Y0034075D01*
X0126075D02*
X0124775D01*
X0090275Y-0005775D02*
Y-00057D01*
X0091575D02*
X0090275D01*
X0091575Y-0005775D02*
Y-00057D01*
X00912013Y-00040759D02*
X00906487D01*
X0091575Y-0003564D02*
Y-0002975D01*
X00912013Y-00040759D02*
X0091575Y-0003564D01*
X00906487Y-00040759D02*
X0090275Y-0003564D01*
X0091575Y-0005775D02*
X0090275D01*
Y-0003564D02*
Y-0002975D01*
X0091575D02*
X0090275D01*
X0101775Y0006575D02*
Y000665D01*
X0103075D02*
X0101775D01*
X0103075Y0006575D02*
Y000665D01*
X01027013Y00082741D02*
X01021487D01*
X0103075Y0008786D02*
Y0009375D01*
X01027013Y00082741D02*
X0103075Y0008786D01*
X01021487Y00082741D02*
X0101775Y0008786D01*
X0103075Y0006575D02*
X0101775D01*
Y0008786D02*
Y0009375D01*
X0103075D02*
X0101775D01*
X0090275Y-0030475D02*
Y-00304D01*
X0091575D02*
X0090275D01*
X0091575Y-0030475D02*
Y-00304D01*
X00912013Y-00287759D02*
X00906487D01*
X0091575Y-0028264D02*
Y-0027675D01*
X00912013Y-00287759D02*
X0091575Y-0028264D01*
X00906487Y-00287759D02*
X0090275Y-0028264D01*
X0091575Y-0030475D02*
X0090275D01*
Y-0028264D02*
Y-0027675D01*
X0091575D02*
X0090275D01*
X0101775Y-0018125D02*
Y-001805D01*
X0103075D02*
X0101775D01*
X0103075Y-0018125D02*
Y-001805D01*
X01027013Y-00164259D02*
X01021487D01*
X0103075Y-0015914D02*
Y-0015325D01*
X01027013Y-00164259D02*
X0103075Y-0015914D01*
X01021487Y-00164259D02*
X0101775Y-0015914D01*
X0103075Y-0018125D02*
X0101775D01*
Y-0015914D02*
Y-0015325D01*
X0103075D02*
X0101775D01*
X0090275Y-0055175D02*
Y-00551D01*
X0091575D02*
X0090275D01*
X0091575Y-0055175D02*
Y-00551D01*
X00912013Y-00534759D02*
X00906487D01*
X0091575Y-0052964D02*
Y-0052375D01*
X00912013Y-00534759D02*
X0091575Y-0052964D01*
X00906487Y-00534759D02*
X0090275Y-0052964D01*
X0091575Y-0055175D02*
X0090275D01*
Y-0052964D02*
Y-0052375D01*
X0091575D02*
X0090275D01*
X0101775Y-0042825D02*
Y-004275D01*
X0103075D02*
X0101775D01*
X0103075Y-0042825D02*
Y-004275D01*
X01027013Y-00411259D02*
X01021487D01*
X0103075Y-0040614D02*
Y-0040025D01*
X01027013Y-00411259D02*
X0103075Y-0040614D01*
X01021487Y-00411259D02*
X0101775Y-0040614D01*
X0103075Y-0042825D02*
X0101775D01*
Y-0040614D02*
Y-0040025D01*
X0103075D02*
X0101775D01*
X0090275Y-0079875D02*
Y-00798D01*
X0091575D02*
X0090275D01*
X0091575Y-0079875D02*
Y-00798D01*
X00912013Y-00781759D02*
X00906487D01*
X0091575Y-0077664D02*
Y-0077075D01*
X00912013Y-00781759D02*
X0091575Y-0077664D01*
X00906487Y-00781759D02*
X0090275Y-0077664D01*
X0091575Y-0079875D02*
X0090275D01*
Y-0077664D02*
Y-0077075D01*
X0091575D02*
X0090275D01*
X0101775Y-0067525D02*
Y-006745D01*
X0103075D02*
X0101775D01*
X0103075Y-0067525D02*
Y-006745D01*
X01027013Y-00658259D02*
X01021487D01*
X0103075Y-0065314D02*
Y-0064725D01*
X01027013Y-00658259D02*
X0103075Y-0065314D01*
X01021487Y-00658259D02*
X0101775Y-0065314D01*
X0103075Y-0067525D02*
X0101775D01*
Y-0065314D02*
Y-0064725D01*
X0103075D02*
X0101775D01*
X0090275Y-0104575D02*
Y-01045D01*
X0091575D02*
X0090275D01*
X0091575Y-0104575D02*
Y-01045D01*
X00912013Y-01028759D02*
X00906487D01*
X0091575Y-0102364D02*
Y-0101775D01*
X00912013Y-01028759D02*
X0091575Y-0102364D01*
X00906487Y-01028759D02*
X0090275Y-0102364D01*
X0091575Y-0104575D02*
X0090275D01*
Y-0102364D02*
Y-0101775D01*
X0091575D02*
X0090275D01*
X0101775Y-0092225D02*
Y-009215D01*
X0103075D02*
X0101775D01*
X0103075Y-0092225D02*
Y-009215D01*
X01027013Y-00905259D02*
X01021487D01*
X0103075Y-0090014D02*
Y-0089425D01*
X01027013Y-00905259D02*
X0103075Y-0090014D01*
X01021487Y-00905259D02*
X0101775Y-0090014D01*
X0103075Y-0092225D02*
X0101775D01*
Y-0090014D02*
Y-0089425D01*
X0103075D02*
X0101775D01*
X0090275Y-0129275D02*
Y-01292D01*
X0091575D02*
X0090275D01*
X0091575Y-0129275D02*
Y-01292D01*
X00912013Y-01275759D02*
X00906487D01*
X0091575Y-0127064D02*
Y-0126475D01*
X00912013Y-01275759D02*
X0091575Y-0127064D01*
X00906487Y-01275759D02*
X0090275Y-0127064D01*
X0091575Y-0129275D02*
X0090275D01*
Y-0127064D02*
Y-0126475D01*
X0091575D02*
X0090275D01*
X0101775Y-0116925D02*
Y-011685D01*
X0103075D02*
X0101775D01*
X0103075Y-0116925D02*
Y-011685D01*
X01027013Y-01152259D02*
X01021487D01*
X0103075Y-0114714D02*
Y-0114125D01*
X01027013Y-01152259D02*
X0103075Y-0114714D01*
X01021487Y-01152259D02*
X0101775Y-0114714D01*
X0103075Y-0116925D02*
X0101775D01*
Y-0114714D02*
Y-0114125D01*
X0103075D02*
X0101775D01*
Y-0141625D02*
Y-014155D01*
X0103075D02*
X0101775D01*
X0103075Y-0141625D02*
Y-014155D01*
X01027013Y-01399259D02*
X01021487D01*
X0103075Y-0139414D02*
Y-0138825D01*
X01027013Y-01399259D02*
X0103075Y-0139414D01*
X01021487Y-01399259D02*
X0101775Y-0139414D01*
X0103075Y-0141625D02*
X0101775D01*
Y-0139414D02*
Y-0138825D01*
X0103075D02*
X0101775D01*
X0068575Y-01759D02*
Y-0175825D01*
Y-01759D02*
X0067275D01*
Y-0175825D01*
X00682013Y-0177524D02*
X00676487D01*
X0067275Y-0178625D02*
Y-0178036D01*
X00676487Y-0177524D01*
X0068575Y-0178036D02*
X00682013Y-0177524D01*
X0068575Y-0175825D02*
X0067275D01*
X0068575Y-0178625D02*
Y-0178036D01*
Y-0178625D02*
X0067275D01*
X0068575Y-01512D02*
Y-0151125D01*
Y-01512D02*
X0067275D01*
Y-0151125D01*
X00682013Y-0152824D02*
X00676487D01*
X0067275Y-0153925D02*
Y-0153336D01*
X00676487Y-0152824D01*
X0068575Y-0153336D02*
X00682013Y-0152824D01*
X0068575Y-0151125D02*
X0067275D01*
X0068575Y-0153925D02*
Y-0153336D01*
Y-0153925D02*
X0067275D01*
X0057075Y-016355D02*
Y-0163475D01*
Y-016355D02*
X0055775D01*
Y-0163475D01*
X00567013Y-0165174D02*
X00561487D01*
X0055775Y-0166275D02*
Y-01656859D01*
X00561487Y-0165174D01*
X0057075Y-01656859D02*
X00567013Y-0165174D01*
X0057075Y-0163475D02*
X0055775D01*
X0057075Y-0166275D02*
Y-01656859D01*
Y-0166275D02*
X0055775D01*
X0057075Y-013885D02*
Y-0138775D01*
Y-013885D02*
X0055775D01*
Y-0138775D01*
X00567013Y-0140474D02*
X00561487D01*
X0055775Y-0141575D02*
Y-0140986D01*
X00561487Y-0140474D01*
X0057075Y-0140986D02*
X00567013Y-0140474D01*
X0057075Y-0138775D02*
X0055775D01*
X0057075Y-0141575D02*
Y-0140986D01*
Y-0141575D02*
X0055775D01*
X0068575Y-01265D02*
Y-0126425D01*
Y-01265D02*
X0067275D01*
Y-0126425D01*
X00682013Y-0128124D02*
X00676487D01*
X0067275Y-0129225D02*
Y-0128636D01*
X00676487Y-0128124D01*
X0068575Y-0128636D02*
X00682013Y-0128124D01*
X0068575Y-0126425D02*
X0067275D01*
X0068575Y-0129225D02*
Y-0128636D01*
Y-0129225D02*
X0067275D01*
X0068575Y-01018D02*
Y-0101725D01*
Y-01018D02*
X0067275D01*
Y-0101725D01*
X00682013Y-0103424D02*
X00676487D01*
X0067275Y-0104525D02*
Y-0103936D01*
X00676487Y-0103424D01*
X0068575Y-0103936D02*
X00682013Y-0103424D01*
X0068575Y-0101725D02*
X0067275D01*
X0068575Y-0104525D02*
Y-0103936D01*
Y-0104525D02*
X0067275D01*
X0057075Y-011415D02*
Y-0114075D01*
Y-011415D02*
X0055775D01*
Y-0114075D01*
X00567013Y-0115774D02*
X00561487D01*
X0055775Y-0116875D02*
Y-01162859D01*
X00561487Y-0115774D01*
X0057075Y-01162859D02*
X00567013Y-0115774D01*
X0057075Y-0114075D02*
X0055775D01*
X0057075Y-0116875D02*
Y-01162859D01*
Y-0116875D02*
X0055775D01*
X0057075Y-008945D02*
Y-0089375D01*
Y-008945D02*
X0055775D01*
Y-0089375D01*
X00567013Y-0091074D02*
X00561487D01*
X0055775Y-0092175D02*
Y-0091586D01*
X00561487Y-0091074D01*
X0057075Y-0091586D02*
X00567013Y-0091074D01*
X0057075Y-0089375D02*
X0055775D01*
X0057075Y-0092175D02*
Y-0091586D01*
Y-0092175D02*
X0055775D01*
X0068575Y-00771D02*
Y-0077025D01*
Y-00771D02*
X0067275D01*
Y-0077025D01*
X00682013Y-0078724D02*
X00676487D01*
X0067275Y-0079825D02*
Y-0079236D01*
X00676487Y-0078724D01*
X0068575Y-0079236D02*
X00682013Y-0078724D01*
X0068575Y-0077025D02*
X0067275D01*
X0068575Y-0079825D02*
Y-0079236D01*
Y-0079825D02*
X0067275D01*
X0045575Y-01018D02*
Y-0101725D01*
Y-01018D02*
X0044275D01*
Y-0101725D01*
X00452013Y-0103424D02*
X00446487D01*
X0044275Y-0104525D02*
Y-0103936D01*
X00446487Y-0103424D01*
X0045575Y-0103936D02*
X00452013Y-0103424D01*
X0045575Y-0101725D02*
X0044275D01*
X0045575Y-0104525D02*
Y-0103936D01*
Y-0104525D02*
X0044275D01*
X0057075Y-006475D02*
Y-0064675D01*
Y-006475D02*
X0055775D01*
Y-0064675D01*
X00567013Y-0066374D02*
X00561487D01*
X0055775Y-0067475D02*
Y-0066886D01*
X00561487Y-0066374D01*
X0057075Y-0066886D02*
X00567013Y-0066374D01*
X0057075Y-0064675D02*
X0055775D01*
X0057075Y-0067475D02*
Y-0066886D01*
Y-0067475D02*
X0055775D01*
X0045575Y-00771D02*
Y-0077025D01*
Y-00771D02*
X0044275D01*
Y-0077025D01*
X00452013Y-0078724D02*
X00446487D01*
X0044275Y-0079825D02*
Y-00792359D01*
X00446487Y-0078724D01*
X0045575Y-00792359D02*
X00452013Y-0078724D01*
X0045575Y-0077025D02*
X0044275D01*
X0045575Y-0079825D02*
Y-00792359D01*
Y-0079825D02*
X0044275D01*
X0068575Y-00277D02*
Y-0027625D01*
Y-00277D02*
X0067275D01*
Y-0027625D01*
X00682013Y-00293241D02*
X00676487D01*
X0067275Y-0030425D02*
Y-0029836D01*
X00676487Y-00293241D01*
X0068575Y-0029836D02*
X00682013Y-00293241D01*
X0068575Y-0027625D02*
X0067275D01*
X0068575Y-0030425D02*
Y-0029836D01*
Y-0030425D02*
X0067275D01*
X0068575Y-00524D02*
Y-0052325D01*
Y-00524D02*
X0067275D01*
Y-0052325D01*
X00682013Y-0054024D02*
X00676487D01*
X0067275Y-0055125D02*
Y-0054536D01*
X00676487Y-0054024D01*
X0068575Y-0054536D02*
X00682013Y-0054024D01*
X0068575Y-0052325D02*
X0067275D01*
X0068575Y-0055125D02*
Y-0054536D01*
Y-0055125D02*
X0067275D01*
X0057075Y-001535D02*
Y-0015275D01*
Y-001535D02*
X0055775D01*
Y-0015275D01*
X00567013Y-0016974D02*
X00561487D01*
X0055775Y-0018075D02*
Y-00174859D01*
X00561487Y-0016974D01*
X0057075Y-00174859D02*
X00567013Y-0016974D01*
X0057075Y-0015275D02*
X0055775D01*
X0057075Y-0018075D02*
Y-00174859D01*
Y-0018075D02*
X0055775D01*
X0057075Y-004005D02*
Y-0039975D01*
Y-004005D02*
X0055775D01*
Y-0039975D01*
X00567013Y-0041674D02*
X00561487D01*
X0055775Y-0042775D02*
Y-0042186D01*
X00561487Y-0041674D01*
X0057075Y-0042186D02*
X00567013Y-0041674D01*
X0057075Y-0039975D02*
X0055775D01*
X0057075Y-0042775D02*
Y-0042186D01*
Y-0042775D02*
X0055775D01*
X0057075Y000935D02*
Y0009425D01*
Y000935D02*
X0055775D01*
Y0009425D01*
X00567013Y0007726D02*
X00561487D01*
X0055775Y0006625D02*
Y0007214D01*
X00561487Y0007726D01*
X0057075Y0007214D02*
X00567013Y0007726D01*
X0057075Y0009425D02*
X0055775D01*
X0057075Y0006625D02*
Y0007214D01*
Y0006625D02*
X0055775D01*
X0068575Y-0003D02*
Y-0002925D01*
Y-0003D02*
X0067275D01*
Y-0002925D01*
X00682013Y-0004624D02*
X00676487D01*
X0067275Y-0005725D02*
Y-0005136D01*
X00676487Y-0004624D01*
X0068575Y-0005136D02*
X00682013Y-0004624D01*
X0068575Y-0002925D02*
X0067275D01*
X0068575Y-0005725D02*
Y-0005136D01*
Y-0005725D02*
X0067275D01*
X0032775Y-0018125D02*
Y-001805D01*
X0034075D02*
X0032775D01*
X0034075Y-0018125D02*
Y-001805D01*
X00337013Y-00164259D02*
X00331487D01*
X0034075Y-0015914D02*
Y-0015325D01*
X00337013Y-00164259D02*
X0034075Y-0015914D01*
X00331487Y-00164259D02*
X0032775Y-0015914D01*
X0034075Y-0018125D02*
X0032775D01*
Y-0015914D02*
Y-0015325D01*
X0034075D02*
X0032775D01*
X0044275Y-0005775D02*
Y-00057D01*
X0045575D02*
X0044275D01*
X0045575Y-0005775D02*
Y-00057D01*
X00452013Y-00040759D02*
X00446487D01*
X0045575Y-0003564D02*
Y-0002975D01*
X00452013Y-00040759D02*
X0045575Y-0003564D01*
X00446487Y-00040759D02*
X0044275Y-0003564D01*
X0045575Y-0005775D02*
X0044275D01*
Y-0003564D02*
Y-0002975D01*
X0045575D02*
X0044275D01*
X0032775Y-0042825D02*
Y-004275D01*
X0034075D02*
X0032775D01*
X0034075Y-0042825D02*
Y-004275D01*
X00337013Y-00411259D02*
X00331487D01*
X0034075Y-0040614D02*
Y-0040025D01*
X00337013Y-00411259D02*
X0034075Y-0040614D01*
X00331487Y-00411259D02*
X0032775Y-0040614D01*
X0034075Y-0042825D02*
X0032775D01*
Y-0040614D02*
Y-0040025D01*
X0034075D02*
X0032775D01*
X0044275Y-0030475D02*
Y-00304D01*
X0045575D02*
X0044275D01*
X0045575Y-0030475D02*
Y-00304D01*
X00452013Y-00287759D02*
X00446487D01*
X0045575Y-0028264D02*
Y-0027675D01*
X00452013Y-00287759D02*
X0045575Y-0028264D01*
X00446487Y-00287759D02*
X0044275Y-0028264D01*
X0045575Y-0030475D02*
X0044275D01*
Y-0028264D02*
Y-0027675D01*
X0045575D02*
X0044275D01*
X0032775Y-0067525D02*
Y-006745D01*
X0034075D02*
X0032775D01*
X0034075Y-0067525D02*
Y-006745D01*
X00337013Y-00658259D02*
X00331487D01*
X0034075Y-0065314D02*
Y-0064725D01*
X00337013Y-00658259D02*
X0034075Y-0065314D01*
X00331487Y-00658259D02*
X0032775Y-0065314D01*
X0034075Y-0067525D02*
X0032775D01*
Y-0065314D02*
Y-0064725D01*
X0034075D02*
X0032775D01*
X0044275Y-0055175D02*
Y-00551D01*
X0045575D02*
X0044275D01*
X0045575Y-0055175D02*
Y-00551D01*
X00452013Y-00534759D02*
X00446487D01*
X0045575Y-0052964D02*
Y-0052375D01*
X00452013Y-00534759D02*
X0045575Y-0052964D01*
X00446487Y-00534759D02*
X0044275Y-0052964D01*
X0045575Y-0055175D02*
X0044275D01*
Y-0052964D02*
Y-0052375D01*
X0045575D02*
X0044275D01*
X0032775Y-0092225D02*
Y-009215D01*
X0034075D02*
X0032775D01*
X0034075Y-0092225D02*
Y-009215D01*
X00337013Y-00905259D02*
X00331487D01*
X0034075Y-0090014D02*
Y-0089425D01*
X00337013Y-00905259D02*
X0034075Y-0090014D01*
X00331487Y-00905259D02*
X0032775Y-0090014D01*
X0034075Y-0092225D02*
X0032775D01*
Y-0090014D02*
Y-0089425D01*
X0034075D02*
X0032775D01*
X0021275Y-0079875D02*
Y-00798D01*
X0022575D02*
X0021275D01*
X0022575Y-0079875D02*
Y-00798D01*
X00222013Y-00781759D02*
X00216487D01*
X0022575Y-0077664D02*
Y-0077075D01*
X00222013Y-00781759D02*
X0022575Y-0077664D01*
X00216487Y-00781759D02*
X0021275Y-0077664D01*
X0022575Y-0079875D02*
X0021275D01*
Y-0077664D02*
Y-0077075D01*
X0022575D02*
X0021275D01*
Y-0129275D02*
Y-01292D01*
X0022575D02*
X0021275D01*
X0022575Y-0129275D02*
Y-01292D01*
X00222013Y-01275759D02*
X00216487D01*
X0022575Y-0127064D02*
Y-0126475D01*
X00222013Y-01275759D02*
X0022575Y-0127064D01*
X00216487Y-01275759D02*
X0021275Y-0127064D01*
X0022575Y-0129275D02*
X0021275D01*
Y-0127064D02*
Y-0126475D01*
X0022575D02*
X0021275D01*
Y-0104575D02*
Y-01045D01*
X0022575D02*
X0021275D01*
X0022575Y-0104575D02*
Y-01045D01*
X00222013Y-01028759D02*
X00216487D01*
X0022575Y-0102364D02*
Y-0101775D01*
X00222013Y-01028759D02*
X0022575Y-0102364D01*
X00216487Y-01028759D02*
X0021275Y-0102364D01*
X0022575Y-0104575D02*
X0021275D01*
Y-0102364D02*
Y-0101775D01*
X0022575D02*
X0021275D01*
X0032775Y-0141625D02*
Y-014155D01*
X0034075D02*
X0032775D01*
X0034075Y-0141625D02*
Y-014155D01*
X00337013Y-01399259D02*
X00331487D01*
X0034075Y-0139414D02*
Y-0138825D01*
X00337013Y-01399259D02*
X0034075Y-0139414D01*
X00331487Y-01399259D02*
X0032775Y-0139414D01*
X0034075Y-0141625D02*
X0032775D01*
Y-0139414D02*
Y-0138825D01*
X0034075D02*
X0032775D01*
Y-0116925D02*
Y-011685D01*
X0034075D02*
X0032775D01*
X0034075Y-0116925D02*
Y-011685D01*
X00337013Y-01152259D02*
X00331487D01*
X0034075Y-0114714D02*
Y-0114125D01*
X00337013Y-01152259D02*
X0034075Y-0114714D01*
X00331487Y-01152259D02*
X0032775Y-0114714D01*
X0034075Y-0116925D02*
X0032775D01*
Y-0114714D02*
Y-0114125D01*
X0034075D02*
X0032775D01*
X0044275Y-0153975D02*
Y-01539D01*
X0045575D02*
X0044275D01*
X0045575Y-0153975D02*
Y-01539D01*
X00452013Y-01522759D02*
X00446487D01*
X0045575Y-0151764D02*
Y-0151175D01*
X00452013Y-01522759D02*
X0045575Y-0151764D01*
X00446487Y-01522759D02*
X0044275Y-0151764D01*
X0045575Y-0153975D02*
X0044275D01*
Y-0151764D02*
Y-0151175D01*
X0045575D02*
X0044275D01*
Y-0129275D02*
Y-01292D01*
X0045575D02*
X0044275D01*
X0045575Y-0129275D02*
Y-01292D01*
X00452013Y-01275759D02*
X00446487D01*
X0045575Y-0127064D02*
Y-0126475D01*
X00452013Y-01275759D02*
X0045575Y-0127064D01*
X00446487Y-01275759D02*
X0044275Y-0127064D01*
X0045575Y-0129275D02*
X0044275D01*
Y-0127064D02*
Y-0126475D01*
X0045575D02*
X0044275D01*
X0032775Y-0166325D02*
Y-016625D01*
X0034075D02*
X0032775D01*
X0034075Y-0166325D02*
Y-016625D01*
X00337013Y-01646259D02*
X00331487D01*
X0034075Y-0164114D02*
Y-0163525D01*
X00337013Y-01646259D02*
X0034075Y-0164114D01*
X00331487Y-01646259D02*
X0032775Y-0164114D01*
X0034075Y-0166325D02*
X0032775D01*
Y-0164114D02*
Y-0163525D01*
X0034075D02*
X0032775D01*
M02*
