G04 Layer_Color=8388736*
%FSTAX44Y44*%
%MOMM*%
G71*
G01*
G75*
%ADD10C,0.2000*%
D10*
X00374249Y00247597D02*
X00294249D01*
Y00157597D02*
Y00247597D01*
X00374249Y00157597D02*
X00294249D01*
X00374249D02*
Y00247597D01*
Y00404597D02*
Y00494597D01*
Y00404597D02*
X00294249D01*
Y00494597D01*
X00374249D02*
X00294249D01*
X00374249Y00651597D02*
Y00741597D01*
Y00651597D02*
X00294249D01*
Y00741597D01*
X00374249D02*
X00294249D01*
X00374249Y00898597D02*
Y00988597D01*
Y00898597D02*
X00294249D01*
Y00988597D01*
X00374249D02*
X00294249D01*
X00374249Y01145597D02*
Y01235597D01*
Y01145597D02*
X00294249D01*
Y01235597D01*
X00374249D02*
X00294249D01*
X00374249Y01392597D02*
Y01482597D01*
Y01392597D02*
X00294249D01*
Y01482597D01*
X00374249D02*
X00294249D01*
X00374249Y01639597D02*
Y01729597D01*
Y01639597D02*
X00294249D01*
Y01729597D01*
X00374249D02*
X00294249D01*
X00374249Y01886597D02*
X00294249D01*
Y01976597D01*
X00487999Y01853097D02*
X00407999D01*
Y01763097D02*
Y01853097D01*
X00487999Y01763097D02*
X00407999D01*
X00487999D02*
Y01853097D01*
Y01606097D02*
X00407999D01*
Y01516097D02*
Y01606097D01*
X00487999Y01516097D02*
X00407999D01*
X00487999D02*
Y01606097D01*
Y01359097D02*
X00407999D01*
Y01269097D02*
Y01359097D01*
X00487999Y01269097D02*
X00407999D01*
X00487999D02*
Y01359097D01*
Y01112097D02*
X00407999D01*
Y01022097D02*
Y01112097D01*
X00487999Y01022097D02*
X00407999D01*
X00487999D02*
Y01112097D01*
Y00865097D02*
X00407999D01*
Y00775097D02*
Y00865097D01*
X00487999Y00775097D02*
X00407999D01*
X00487999D02*
Y00865097D01*
Y00618097D02*
X00407999D01*
Y00528097D02*
Y00618097D01*
X00487999Y00528097D02*
X00407999D01*
X00487999D02*
Y00618097D01*
Y00371097D02*
X00407999D01*
Y00281097D02*
Y00371097D01*
X00487999Y00281097D02*
X00407999D01*
X00487999D02*
Y00371097D01*
Y00034097D02*
Y00124097D01*
Y00034097D02*
X00407999D01*
Y00124097D01*
X00487999D02*
X00407999D01*
X00604249Y01729597D02*
X00524249D01*
Y01639597D02*
Y01729597D01*
X00604249Y01639597D02*
X00524249D01*
X00604249D02*
Y01729597D01*
Y01482597D02*
X00524249D01*
Y01392597D02*
Y01482597D01*
X00604249Y01392597D02*
X00524249D01*
X00604249D02*
Y01482597D01*
Y01235597D02*
X00524249D01*
Y01145597D02*
Y01235597D01*
X00604249Y01145597D02*
X00524249D01*
X00604249D02*
Y01235597D01*
Y00988597D02*
X00524249D01*
Y00898597D02*
Y00988597D01*
X00604249Y00898597D02*
X00524249D01*
X00604249D02*
Y00988597D01*
Y00741597D02*
X00524249D01*
Y00651597D02*
Y00741597D01*
X00604249Y00651597D02*
X00524249D01*
X00604249D02*
Y00741597D01*
Y00494597D02*
X00524249D01*
Y00404597D02*
Y00494597D01*
X00604249Y00404597D02*
X00524249D01*
X00604249D02*
Y00494597D01*
Y00247597D02*
X00524249D01*
Y00157597D02*
Y00247597D01*
X00604249Y00157597D02*
X00524249D01*
X00604249D02*
Y00247597D01*
Y-00089403D02*
Y00000597D01*
Y-00089403D02*
X00524249D01*
Y00000597D01*
X00604249D02*
X00524249D01*
X00719249Y01606097D02*
X00639249D01*
Y01516097D02*
Y01606097D01*
X00719249Y01516097D02*
X00639249D01*
X00719249D02*
Y01606097D01*
Y01359097D02*
X00639249D01*
Y01269097D02*
Y01359097D01*
X00719249Y01269097D02*
X00639249D01*
X00719249D02*
Y01359097D01*
Y01112097D02*
X00639249D01*
Y01022097D02*
Y01112097D01*
X00719249Y01022097D02*
X00639249D01*
X00719249D02*
Y01112097D01*
Y00865097D02*
X00639249D01*
Y00775097D02*
Y00865097D01*
X00719249Y00775097D02*
X00639249D01*
X00719249D02*
Y00865097D01*
Y00618097D02*
X00639249D01*
Y00528097D02*
Y00618097D01*
X00719249Y00528097D02*
X00639249D01*
X00719249D02*
Y00618097D01*
Y00371097D02*
X00639249D01*
Y00281097D02*
Y00371097D01*
X00719249Y00281097D02*
X00639249D01*
X00719249D02*
Y00371097D01*
Y00124097D02*
X00639249D01*
Y00034097D02*
Y00124097D01*
X00719249Y00034097D02*
X00639249D01*
X00719249D02*
Y00124097D01*
Y-00212903D02*
Y-00122903D01*
Y-00212903D02*
X00639249D01*
Y-00122903D01*
X00719249D02*
X00639249D01*
X00259249Y01359097D02*
X00179249D01*
Y01269097D02*
Y01359097D01*
X00259249Y01269097D02*
X00179249D01*
X00259249D02*
Y01359097D01*
Y01112097D02*
X00179249D01*
Y01022097D02*
Y01112097D01*
X00259249Y01022097D02*
X00179249D01*
X00259249D02*
Y01112097D01*
Y00775097D02*
Y00865097D01*
Y00775097D02*
X00179249D01*
Y00865097D01*
X00259249D02*
X00179249D01*
X00834249Y01729597D02*
X00754249D01*
Y01639597D02*
Y01729597D01*
X00834249Y01639597D02*
X00754249D01*
X00834249D02*
Y01729597D01*
Y01482597D02*
X00754249D01*
Y01392597D02*
Y01482597D01*
X00834249Y01392597D02*
X00754249D01*
X00834249D02*
Y01482597D01*
Y01235597D02*
X00754249D01*
Y01145597D02*
Y01235597D01*
X00834249Y01145597D02*
X00754249D01*
X00834249D02*
Y01235597D01*
Y00988597D02*
X00754249D01*
Y00898597D02*
Y00988597D01*
X00834249Y00898597D02*
X00754249D01*
X00834249D02*
Y00988597D01*
Y00741597D02*
X00754249D01*
Y00651597D02*
Y00741597D01*
X00834249Y00651597D02*
X00754249D01*
X00834249D02*
Y00741597D01*
Y00494597D02*
X00754249D01*
Y00404597D02*
Y00494597D01*
X00834249Y00404597D02*
X00754249D01*
X00834249D02*
Y00494597D01*
Y00247597D02*
X00754249D01*
Y00157597D02*
Y00247597D01*
X00834249Y00157597D02*
X00754249D01*
X00834249D02*
Y00247597D01*
Y-00089403D02*
Y00000597D01*
Y-00089403D02*
X00754249D01*
Y00000597D01*
X00834249D02*
X00754249D01*
X00949249Y01606097D02*
X00869249D01*
Y01516097D02*
Y01606097D01*
X00949249Y01516097D02*
X00869249D01*
X00949249D02*
Y01606097D01*
Y01359097D02*
X00869249D01*
Y01269097D02*
Y01359097D01*
X00949249Y01269097D02*
X00869249D01*
X00949249D02*
Y01359097D01*
Y01112097D02*
X00869249D01*
Y01022097D02*
Y01112097D01*
X00949249Y01022097D02*
X00869249D01*
X00949249D02*
Y01112097D01*
Y00865097D02*
X00869249D01*
Y00775097D02*
Y00865097D01*
X00949249Y00775097D02*
X00869249D01*
X00949249D02*
Y00865097D01*
Y00618097D02*
X00869249D01*
Y00528097D02*
Y00618097D01*
X00949249Y00528097D02*
X00869249D01*
X00949249D02*
Y00618097D01*
Y00371097D02*
X00869249D01*
Y00281097D02*
Y00371097D01*
X00949249Y00281097D02*
X00869249D01*
X00949249D02*
Y00371097D01*
Y00124097D02*
X00869249D01*
Y00034097D02*
Y00124097D01*
X00949249Y00034097D02*
X00869249D01*
X00949249D02*
Y00124097D01*
Y-00212903D02*
Y-00122903D01*
Y-00212903D02*
X00869249D01*
Y-00122903D01*
X00949249D02*
X00869249D01*
X01064249Y01729597D02*
X00984249D01*
Y01639597D02*
Y01729597D01*
X01064249Y01639597D02*
X00984249D01*
X01064249D02*
Y01729597D01*
Y01482597D02*
X00984249D01*
Y01392597D02*
Y01482597D01*
X01064249Y01392597D02*
X00984249D01*
X01064249D02*
Y01482597D01*
Y01235597D02*
X00984249D01*
Y01145597D02*
Y01235597D01*
X01064249Y01145597D02*
X00984249D01*
X01064249D02*
Y01235597D01*
Y00988597D02*
X00984249D01*
Y00898597D02*
Y00988597D01*
X01064249Y00898597D02*
X00984249D01*
X01064249D02*
Y00988597D01*
Y00741597D02*
X00984249D01*
Y00651597D02*
Y00741597D01*
X01064249Y00651597D02*
X00984249D01*
X01064249D02*
Y00741597D01*
Y00494597D02*
X00984249D01*
Y00404597D02*
Y00494597D01*
X01064249Y00404597D02*
X00984249D01*
X01064249D02*
Y00494597D01*
Y00247597D02*
X00984249D01*
Y00157597D02*
Y00247597D01*
X01064249Y00157597D02*
X00984249D01*
X01064249D02*
Y00247597D01*
Y-00089403D02*
Y00000597D01*
Y-00089403D02*
X00984249D01*
Y00000597D01*
X01064249D02*
X00984249D01*
X01179249Y01606097D02*
X01099249D01*
Y01516097D02*
Y01606097D01*
X01179249Y01516097D02*
X01099249D01*
X01179249D02*
Y01606097D01*
Y01359097D02*
X01099249D01*
Y01269097D02*
Y01359097D01*
X01179249Y01269097D02*
X01099249D01*
X01179249D02*
Y01359097D01*
Y01112097D02*
X01099249D01*
Y01022097D02*
Y01112097D01*
X01179249Y01022097D02*
X01099249D01*
X01179249D02*
Y01112097D01*
Y00865097D02*
X01099249D01*
Y00775097D02*
Y00865097D01*
X01179249Y00775097D02*
X01099249D01*
X01179249D02*
Y00865097D01*
Y00618097D02*
X01099249D01*
Y00528097D02*
Y00618097D01*
X01179249Y00528097D02*
X01099249D01*
X01179249D02*
Y00618097D01*
Y00371097D02*
X01099249D01*
Y00281097D02*
Y00371097D01*
X01179249Y00281097D02*
X01099249D01*
X01179249D02*
Y00371097D01*
Y00124097D02*
X01099249D01*
Y00034097D02*
Y00124097D01*
X01179249Y00034097D02*
X01099249D01*
X01179249D02*
Y00124097D01*
Y-00212903D02*
Y-00122903D01*
Y-00212903D02*
X01099249D01*
Y-00122903D01*
X01179249D02*
X01099249D01*
X01294249Y01729597D02*
X01214249D01*
Y01639597D02*
Y01729597D01*
X01294249Y01639597D02*
X01214249D01*
X01294249D02*
Y01729597D01*
Y01482597D02*
X01214249D01*
Y01392597D02*
Y01482597D01*
X01294249Y01392597D02*
X01214249D01*
X01294249D02*
Y01482597D01*
Y01235597D02*
X01214249D01*
Y01145597D02*
Y01235597D01*
X01294249Y01145597D02*
X01214249D01*
X01294249D02*
Y01235597D01*
Y00988597D02*
X01214249D01*
Y00898597D02*
Y00988597D01*
X01294249Y00898597D02*
X01214249D01*
X01294249D02*
Y00988597D01*
Y00741597D02*
X01214249D01*
Y00651597D02*
Y00741597D01*
X01294249Y00651597D02*
X01214249D01*
X01294249D02*
Y00741597D01*
Y00494597D02*
X01214249D01*
Y00404597D02*
Y00494597D01*
X01294249Y00404597D02*
X01214249D01*
X01294249D02*
Y00494597D01*
Y00247597D02*
X01214249D01*
Y00157597D02*
Y00247597D01*
X01294249Y00157597D02*
X01214249D01*
X01294249D02*
Y00247597D01*
Y-00089403D02*
Y00000597D01*
Y-00089403D02*
X01214249D01*
Y00000597D01*
X01294249D02*
X01214249D01*
X01409249Y01853097D02*
X01329249D01*
Y01763097D02*
Y01853097D01*
X01409249Y01763097D02*
X01329249D01*
X01409249D02*
Y01853097D01*
Y01606097D02*
X01329249D01*
Y01516097D02*
Y01606097D01*
X01409249Y01516097D02*
X01329249D01*
X01409249D02*
Y01606097D01*
Y01359097D02*
X01329249D01*
Y01269097D02*
Y01359097D01*
X01409249Y01269097D02*
X01329249D01*
X01409249D02*
Y01359097D01*
Y01112097D02*
X01329249D01*
Y01022097D02*
Y01112097D01*
X01409249Y01022097D02*
X01329249D01*
X01409249D02*
Y01112097D01*
Y00865097D02*
X01329249D01*
Y00775097D02*
Y00865097D01*
X01409249Y00775097D02*
X01329249D01*
X01409249D02*
Y00865097D01*
Y00618097D02*
X01329249D01*
Y00528097D02*
Y00618097D01*
X01409249Y00528097D02*
X01329249D01*
X01409249D02*
Y00618097D01*
Y00371097D02*
X01329249D01*
Y00281097D02*
Y00371097D01*
X01409249Y00281097D02*
X01329249D01*
X01409249D02*
Y00371097D01*
Y00034097D02*
Y00124097D01*
Y00034097D02*
X01329249D01*
Y00124097D01*
X01409249D02*
X01329249D01*
X01524249Y01976597D02*
X01444249D01*
Y01886597D02*
Y01976597D01*
X01524249Y01886597D02*
X01444249D01*
X01524249D02*
Y01976597D01*
Y01729597D02*
X01444249D01*
Y01639597D02*
Y01729597D01*
X01524249Y01639597D02*
X01444249D01*
X01524249D02*
Y01729597D01*
Y01482597D02*
X01444249D01*
Y01392597D02*
Y01482597D01*
X01524249Y01392597D02*
X01444249D01*
X01524249D02*
Y01482597D01*
Y01235597D02*
X01444249D01*
Y01145597D02*
Y01235597D01*
X01524249Y01145597D02*
X01444249D01*
X01524249D02*
Y01235597D01*
Y00988597D02*
X01444249D01*
Y00898597D02*
Y00988597D01*
X01524249Y00898597D02*
X01444249D01*
X01524249D02*
Y00988597D01*
Y00741597D02*
X01444249D01*
Y00651597D02*
Y00741597D01*
X01524249Y00651597D02*
X01444249D01*
X01524249D02*
Y00741597D01*
Y00494597D02*
X01444249D01*
Y00404597D02*
Y00494597D01*
X01524249Y00404597D02*
X01444249D01*
X01524249D02*
Y00494597D01*
Y00157597D02*
Y00247597D01*
Y00157597D02*
X01444249D01*
Y00247597D01*
X01524249D02*
X01444249D01*
X01639249Y01359097D02*
X01559249D01*
Y01269097D02*
Y01359097D01*
X01639249Y01269097D02*
X01559249D01*
X01639249D02*
Y01359097D01*
Y01112097D02*
X01559249D01*
Y01022097D02*
Y01112097D01*
X01639249Y01022097D02*
X01559249D01*
X01639249D02*
Y01112097D01*
Y00775097D02*
Y00865097D01*
Y00775097D02*
X01559249D01*
Y00865097D01*
X01639249D02*
X01559249D01*
X00374249Y01886597D02*
Y01976597D01*
X00294249D01*
X00604249Y02470597D02*
X00524249D01*
Y02380597D02*
Y02470597D01*
X00604249Y02380597D02*
X00524249D01*
X00604249D02*
Y02470597D01*
Y02223597D02*
X00524249D01*
Y02133597D02*
Y02223597D01*
X00604249Y02133597D02*
X00524249D01*
X00604249D02*
Y02223597D01*
Y01886597D02*
Y01976597D01*
Y01886597D02*
X00524249D01*
Y01976597D01*
X00604249D02*
X00524249D01*
X00719249Y02594097D02*
X00639249D01*
Y02504097D02*
Y02594097D01*
X00719249Y02504097D02*
X00639249D01*
X00719249D02*
Y02594097D01*
Y02347097D02*
X00639249D01*
Y02257097D02*
Y02347097D01*
X00719249Y02257097D02*
X00639249D01*
X00719249D02*
Y02347097D01*
Y02100097D02*
X00639249D01*
Y02010097D02*
Y02100097D01*
X00719249Y02010097D02*
X00639249D01*
X00719249D02*
Y02100097D01*
Y01763097D02*
Y01853097D01*
Y01763097D02*
X00639249D01*
Y01853097D01*
X00719249D02*
X00639249D01*
X00834249Y02470597D02*
X00754249D01*
Y02380597D02*
Y02470597D01*
X00834249Y02380597D02*
X00754249D01*
X00834249D02*
Y02470597D01*
Y02223597D02*
X00754249D01*
Y02133597D02*
Y02223597D01*
X00834249Y02133597D02*
X00754249D01*
X00834249D02*
Y02223597D01*
Y01886597D02*
Y01976597D01*
Y01886597D02*
X00754249D01*
Y01976597D01*
X00834249D02*
X00754249D01*
X00949249Y02594097D02*
X00869249D01*
Y02504097D02*
Y02594097D01*
X00949249Y02504097D02*
X00869249D01*
X00949249D02*
Y02594097D01*
Y02347097D02*
X00869249D01*
Y02257097D02*
Y02347097D01*
X00949249Y02257097D02*
X00869249D01*
X00949249D02*
Y02347097D01*
Y02100097D02*
X00869249D01*
Y02010097D02*
Y02100097D01*
X00949249Y02010097D02*
X00869249D01*
X00949249D02*
Y02100097D01*
Y01763097D02*
Y01853097D01*
Y01763097D02*
X00869249D01*
Y01853097D01*
X00949249D02*
X00869249D01*
X01064249Y02470597D02*
X00984249D01*
Y02380597D02*
Y02470597D01*
X01064249Y02380597D02*
X00984249D01*
X01064249D02*
Y02470597D01*
Y02223597D02*
X00984249D01*
Y02133597D02*
Y02223597D01*
X01064249Y02133597D02*
X00984249D01*
X01064249D02*
Y02223597D01*
Y01886597D02*
Y01976597D01*
Y01886597D02*
X00984249D01*
Y01976597D01*
X01064249D02*
X00984249D01*
X01179249Y02594097D02*
X01099249D01*
Y02504097D02*
Y02594097D01*
X01179249Y02504097D02*
X01099249D01*
X01179249D02*
Y02594097D01*
Y02347097D02*
X01099249D01*
Y02257097D02*
Y02347097D01*
X01179249Y02257097D02*
X01099249D01*
X01179249D02*
Y02347097D01*
Y02100097D02*
X01099249D01*
Y02010097D02*
Y02100097D01*
X01179249Y02010097D02*
X01099249D01*
X01179249D02*
Y02100097D01*
Y01763097D02*
Y01853097D01*
Y01763097D02*
X01099249D01*
Y01853097D01*
X01179249D02*
X01099249D01*
X01294249Y02470597D02*
X01214249D01*
Y02380597D02*
Y02470597D01*
X01294249Y02380597D02*
X01214249D01*
X01294249D02*
Y02470597D01*
Y02223597D02*
X01214249D01*
Y02133597D02*
Y02223597D01*
X01294249Y02133597D02*
X01214249D01*
X01294249D02*
Y02223597D01*
Y01886597D02*
Y01976597D01*
Y01886597D02*
X01214249D01*
Y01976597D01*
X01294249D02*
X01214249D01*
X01409249Y02010097D02*
Y02100097D01*
Y02010097D02*
X01329249D01*
Y02100097D01*
X01409249D02*
X01329249D01*
X00489249Y02010097D02*
Y02100097D01*
Y02010097D02*
X00409249D01*
Y02100097D01*
X00489249D02*
X00409249D01*
M02*
