G04 Layer_Color=8388736*
%FSTAX44Y44*%
%MOMM*%
G71*
G01*
G75*
%ADD10C,4.0000*%
%ADD11C,0.3000*%
%ADD12C,0.6000*%
%ADD13C,6.0000*%
%ADD14R,2.5000X1.3000*%
%ADD15R,2.5000X2.3000*%
G04:AMPARAMS|DCode=16|XSize=5.2032mm|YSize=2.7032mm|CornerRadius=0.7266mm|HoleSize=0mm|Usage=FLASHONLY|Rotation=90.000|XOffset=0mm|YOffset=0mm|HoleType=Round|Shape=RoundedRectangle|*
%AMROUNDEDRECTD16*
21,1,5.2032,1.2500,0,0,90.0*
21,1,3.7500,2.7032,0,0,90.0*
1,1,1.4532,0.6250,1.8750*
1,1,1.4532,0.6250,-1.8750*
1,1,1.4532,-0.6250,-1.8750*
1,1,1.4532,-0.6250,1.8750*
%
%ADD16ROUNDEDRECTD16*%
%ADD17C,4.0032*%
G36*
X01835996Y01962254D02*
X01763996D01*
Y02037254D01*
X01835996D01*
Y01962254D01*
D02*
G37*
G36*
X00036004Y01962504D02*
X-00035996D01*
Y02037504D01*
X00036004D01*
Y01962504D01*
D02*
G37*
G36*
X01835996Y-00037746D02*
X01763996D01*
Y00037254D01*
X01835996D01*
Y-00037746D01*
D02*
G37*
G36*
X00036004Y-00037496D02*
X-00035996D01*
Y00037504D01*
X00036004D01*
Y-00037496D01*
D02*
G37*
%LPC*%
G36*
X01800412Y02030758D02*
X0179958D01*
X01798992Y0203017D01*
X01798992Y02029731D01*
Y02018812D01*
X01798475Y0201831D01*
X01794422Y02017518D01*
X01790642Y02015852D01*
X01787323Y02013394D01*
X01784628Y02010264D01*
X01782689Y02006617D01*
X01781601Y02002632D01*
X01781519Y02000758D01*
X01769581D01*
X01768992Y0200017D01*
Y01999338D01*
X01769581Y0199875D01*
X01781186D01*
X01781419Y01998506D01*
X01782152Y01994441D01*
X01783762Y01990637D01*
X01786172Y01987282D01*
X01789261Y01984541D01*
X0179288Y01982549D01*
X01796848Y01981403D01*
X01798917Y01981281D01*
X01798932Y01981281D01*
X01798947Y0198128D01*
X01798961Y0198128D01*
X01798992D01*
Y01969554D01*
X01799145Y01969185D01*
X01799428Y01968903D01*
X01799797Y0196875D01*
X01800196D01*
X01800565Y01968903D01*
X01800847Y01969185D01*
X01801Y01969554D01*
Y0198125D01*
X01802061D01*
X0180609Y01982161D01*
X01809819Y01983937D01*
X01813065Y01986492D01*
X01815667Y019897D01*
X01817498Y01993402D01*
X01818468Y01997417D01*
X01818487Y0199875D01*
X01830412D01*
X01831Y01999338D01*
Y0200017D01*
X01830412Y02000758D01*
X01829974Y02000758D01*
X01819306D01*
X01818528Y02001547D01*
X01817677Y02005589D01*
X01815956Y02009343D01*
X01813448Y02012626D01*
X0181028Y02015275D01*
X01806604Y0201716D01*
X01802604Y02018189D01*
X01801Y02018236D01*
Y02029731D01*
X01801Y0203017D01*
X01800412Y02030758D01*
D02*
G37*
%LPD*%
G36*
X01815902Y01998315D02*
X01816313Y0199748D01*
X01815503Y01994126D01*
X0181388Y01990846D01*
X01811575Y01988004D01*
X01808699Y0198574D01*
X01805396Y01984166D01*
X0180227Y0198346D01*
X01801Y01984212D01*
Y0199875D01*
X01815473D01*
X01815902Y01998315D01*
D02*
G37*
G36*
X01798992Y01984244D02*
X01798045Y01983399D01*
X01797207Y01983495D01*
X01793691Y0198451D01*
X01790485Y01986275D01*
X01787748Y01988704D01*
X01785613Y01991676D01*
X01784186Y01995046D01*
X01783748Y0199748D01*
X01784809Y0199875D01*
X01798992D01*
Y01984244D01*
D02*
G37*
G36*
Y02015015D02*
Y02000758D01*
X01784549D01*
X01783671Y02001675D01*
X01783698Y02002304D01*
X01784662Y02005835D01*
X0178638Y02009066D01*
X01788768Y02011839D01*
X01791709Y02014017D01*
X01795057Y02015493D01*
X01797722Y02016014D01*
X01798992Y02015015D01*
D02*
G37*
G36*
X01802307Y02016087D02*
X01805851Y02015176D01*
X01809107Y02013506D01*
X01811915Y02011158D01*
X01814136Y0200825D01*
X01815661Y02004924D01*
X01816271Y02002028D01*
X01815394Y02000758D01*
X01801D01*
Y02015214D01*
X01801911Y02016099D01*
X01802307Y02016087D01*
D02*
G37*
%LPC*%
G36*
X0000042Y02031008D02*
X-00000412D01*
X-00001Y0203042D01*
X-00001Y02029981D01*
Y02018486D01*
X-00002604Y02018439D01*
X-00006604Y0201741D01*
X-00010279Y02015525D01*
X-00013448Y02012876D01*
X-00015955Y02009593D01*
X-00017677Y02005839D01*
X-00018528Y02001797D01*
X-00019306Y02001008D01*
X-00030412D01*
X-00031Y0200042D01*
Y01999588D01*
X-00030412Y01999D01*
X-00018487D01*
X-00018468Y01997667D01*
X-00017498Y01993652D01*
X-00015667Y0198995D01*
X-00013065Y01986742D01*
X-00009819Y01984187D01*
X-0000609Y01982411D01*
X-00002061Y019815D01*
X-00001D01*
Y01969804D01*
X-00000847Y01969435D01*
X-00000565Y01969153D01*
X-00000196Y01969D01*
X00000204D01*
X00000573Y01969153D01*
X00000855Y01969435D01*
X00001008Y01969804D01*
Y0198153D01*
X00001039D01*
X00001054Y0198153D01*
X00001068Y01981531D01*
X00001083Y01981532D01*
X00003152Y01981653D01*
X00007121Y01982799D01*
X00010739Y01984791D01*
X00013829Y01987532D01*
X00016238Y01990887D01*
X00017848Y01994691D01*
X00018581Y01998756D01*
X00018815Y01999D01*
X0003042D01*
X00031008Y01999588D01*
Y0200042D01*
X0003042Y02001008D01*
X00029981Y02001008D01*
X00018481D01*
X00018399Y02002882D01*
X00017312Y02006867D01*
X00015373Y02010514D01*
X00012677Y02013644D01*
X00009358Y02016102D01*
X00005579Y02017768D01*
X00001525Y0201856D01*
X00001008Y02019062D01*
Y02029981D01*
X00001008Y0203042D01*
X0000042Y02031008D01*
D02*
G37*
%LPD*%
G36*
X-00001Y02015464D02*
Y02001008D01*
X-00015394D01*
X-00016271Y02002278D01*
X-00015661Y02005174D01*
X-00014136Y020085D01*
X-00011915Y02011409D01*
X-00009107Y02013756D01*
X-00005851Y02015426D01*
X-00002307Y02016337D01*
X-00001911Y02016349D01*
X-00001Y02015464D01*
D02*
G37*
G36*
X00004943Y02015743D02*
X00008292Y02014267D01*
X00011232Y02012089D01*
X00013621Y02009316D01*
X00015338Y02006084D01*
X00016302Y02002554D01*
X00016329Y02001925D01*
X00015452Y02001008D01*
X00001008D01*
Y02015265D01*
X00002278Y02016264D01*
X00004943Y02015743D01*
D02*
G37*
G36*
X-00001Y01984462D02*
X-0000227Y0198371D01*
X-00005395Y01984416D01*
X-00008699Y0198599D01*
X-00011575Y01988254D01*
X-0001388Y01991096D01*
X-00015503Y01994376D01*
X-00016313Y0199773D01*
X-00015901Y01998565D01*
X-00015473Y01999D01*
X-00001D01*
Y01984462D01*
D02*
G37*
G36*
X00016253Y0199773D02*
X00015814Y01995296D01*
X00014387Y01991927D01*
X00012253Y01988954D01*
X00009515Y01986526D01*
X00006309Y0198476D01*
X00002793Y01983745D01*
X00001956Y01983649D01*
X00001008Y01984494D01*
Y01999D01*
X00015191D01*
X00016253Y0199773D01*
D02*
G37*
%LPC*%
G36*
X01800412Y00030758D02*
X0179958D01*
X01798992Y0003017D01*
X01798992Y00029731D01*
Y00018812D01*
X01798475Y0001831D01*
X01794422Y00017518D01*
X01790642Y00015852D01*
X01787323Y00013394D01*
X01784628Y00010264D01*
X01782689Y00006617D01*
X01781601Y00002632D01*
X01781519Y00000758D01*
X01769581D01*
X01768992Y0000017D01*
Y-00000662D01*
X01769581Y-0000125D01*
X01781186D01*
X01781419Y-00001494D01*
X01782152Y-00005559D01*
X01783762Y-00009363D01*
X01786172Y-00012718D01*
X01789261Y-00015459D01*
X0179288Y-00017451D01*
X01796848Y-00018597D01*
X01798917Y-00018719D01*
X01798932Y-00018719D01*
X01798947Y-0001872D01*
X01798961Y-0001872D01*
X01798992D01*
Y-00030446D01*
X01799145Y-00030815D01*
X01799428Y-00031097D01*
X01799797Y-0003125D01*
X01800196D01*
X01800565Y-00031097D01*
X01800847Y-00030815D01*
X01801Y-00030446D01*
Y-0001875D01*
X01802061D01*
X0180609Y-00017839D01*
X01809819Y-00016063D01*
X01813065Y-00013508D01*
X01815667Y-000103D01*
X01817498Y-00006598D01*
X01818468Y-00002583D01*
X01818487Y-0000125D01*
X01830412D01*
X01831Y-00000662D01*
Y0000017D01*
X01830412Y00000758D01*
X01829974Y00000758D01*
X01819306D01*
X01818528Y00001547D01*
X01817677Y00005589D01*
X01815956Y00009343D01*
X01813448Y00012626D01*
X0181028Y00015275D01*
X01806604Y0001716D01*
X01802604Y00018189D01*
X01801Y00018236D01*
Y00029731D01*
X01801Y0003017D01*
X01800412Y00030758D01*
D02*
G37*
%LPD*%
G36*
X01798992Y00015015D02*
Y00000758D01*
X01784549D01*
X01783671Y00001675D01*
X01783698Y00002304D01*
X01784662Y00005835D01*
X0178638Y00009066D01*
X01788768Y00011839D01*
X01791709Y00014017D01*
X01795057Y00015493D01*
X01797722Y00016014D01*
X01798992Y00015015D01*
D02*
G37*
G36*
X01815902Y-00001685D02*
X01816313Y-0000252D01*
X01815503Y-00005874D01*
X0181388Y-00009154D01*
X01811575Y-00011996D01*
X01808699Y-0001426D01*
X01805396Y-00015834D01*
X0180227Y-0001654D01*
X01801Y-00015788D01*
Y-0000125D01*
X01815473D01*
X01815902Y-00001685D01*
D02*
G37*
G36*
X01798992Y-00015756D02*
X01798045Y-00016601D01*
X01797207Y-00016505D01*
X01793691Y-0001549D01*
X01790485Y-00013724D01*
X01787748Y-00011296D01*
X01785613Y-00008324D01*
X01784186Y-00004954D01*
X01783748Y-0000252D01*
X01784809Y-0000125D01*
X01798992D01*
Y-00015756D01*
D02*
G37*
G36*
X01802307Y00016087D02*
X01805851Y00015176D01*
X01809107Y00013506D01*
X01811915Y00011159D01*
X01814136Y0000825D01*
X01815661Y00004924D01*
X01816271Y00002028D01*
X01815394Y00000758D01*
X01801D01*
Y00015214D01*
X01801911Y00016099D01*
X01802307Y00016087D01*
D02*
G37*
%LPC*%
G36*
X0000042Y00031008D02*
X-00000412D01*
X-00001Y0003042D01*
X-00001Y00029981D01*
Y00018486D01*
X-00002604Y00018439D01*
X-00006604Y0001741D01*
X-00010279Y00015525D01*
X-00013448Y00012876D01*
X-00015955Y00009593D01*
X-00017677Y00005839D01*
X-00018528Y00001797D01*
X-00019306Y00001008D01*
X-00030412D01*
X-00031Y0000042D01*
Y-00000412D01*
X-00030412Y-00001D01*
X-00018487D01*
X-00018468Y-00002333D01*
X-00017498Y-00006348D01*
X-00015667Y-0001005D01*
X-00013065Y-00013258D01*
X-00009819Y-00015813D01*
X-0000609Y-00017589D01*
X-00002061Y-000185D01*
X-00001D01*
Y-00030196D01*
X-00000847Y-00030565D01*
X-00000565Y-00030847D01*
X-00000196Y-00031D01*
X00000204D01*
X00000573Y-00030847D01*
X00000855Y-00030565D01*
X00001008Y-00030196D01*
Y-0001847D01*
X00001039D01*
X00001054Y-0001847D01*
X00001068Y-00018469D01*
X00001083Y-00018469D01*
X00003152Y-00018347D01*
X00007121Y-00017201D01*
X00010739Y-00015209D01*
X00013829Y-00012468D01*
X00016238Y-00009113D01*
X00017848Y-00005309D01*
X00018581Y-00001244D01*
X00018815Y-00001D01*
X0003042D01*
X00031008Y-00000412D01*
Y0000042D01*
X0003042Y00001008D01*
X00029981Y00001008D01*
X00018481D01*
X00018399Y00002882D01*
X00017312Y00006867D01*
X00015373Y00010514D01*
X00012677Y00013644D01*
X00009358Y00016102D01*
X00005579Y00017768D01*
X00001525Y0001856D01*
X00001008Y00019062D01*
Y00029981D01*
X00001008Y0003042D01*
X0000042Y00031008D01*
D02*
G37*
%LPD*%
G36*
X00016253Y-0000227D02*
X00015814Y-00004704D01*
X00014387Y-00008073D01*
X00012253Y-00011046D01*
X00009515Y-00013475D01*
X00006309Y-0001524D01*
X00002793Y-00016255D01*
X00001956Y-00016351D01*
X00001008Y-00015506D01*
Y-00001D01*
X00015191D01*
X00016253Y-0000227D01*
D02*
G37*
G36*
X-00001Y-00015538D02*
X-0000227Y-0001629D01*
X-00005395Y-00015584D01*
X-00008699Y-0001401D01*
X-00011575Y-00011746D01*
X-0001388Y-00008904D01*
X-00015503Y-00005624D01*
X-00016313Y-0000227D01*
X-00015901Y-00001435D01*
X-00015473Y-00001D01*
X-00001D01*
Y-00015538D01*
D02*
G37*
G36*
Y00015464D02*
Y00001008D01*
X-00015394D01*
X-00016271Y00002278D01*
X-00015661Y00005174D01*
X-00014136Y000085D01*
X-00011915Y00011408D01*
X-00009107Y00013756D01*
X-00005851Y00015426D01*
X-00002307Y00016337D01*
X-00001911Y00016349D01*
X-00001Y00015464D01*
D02*
G37*
G36*
X00004943Y00015743D02*
X00008292Y00014267D01*
X00011232Y00012089D01*
X00013621Y00009316D01*
X00015338Y00006084D01*
X00016302Y00002554D01*
X00016329Y00001925D01*
X00015452Y00001008D01*
X00001008D01*
Y00015265D01*
X00002278Y00016264D01*
X00004943Y00015743D01*
D02*
G37*
D10*
X018Y-0010025D02*
D03*
X018Y0209975D02*
D03*
X0Y021D02*
D03*
X0Y-001D02*
D03*
D11*
X00834004Y-00337253D02*
X00831505Y-00339752D01*
Y-00344751D01*
X00834004Y-0034725D01*
X00844001D01*
X008465Y-00344751D01*
Y-00339752D01*
X00844001Y-00337253D01*
X00831505Y-00322258D02*
Y-00332255D01*
X008465D01*
Y-00322258D01*
X00839002Y-00332255D02*
Y-00327256D01*
X00831505Y-0031726D02*
Y-00307263D01*
Y-00312261D01*
X008465D01*
X00839002Y-00302264D02*
Y-00292268D01*
X008465Y-00287269D02*
Y-00282271D01*
Y-0028477D01*
X00831505D01*
X00834004Y-00287269D01*
X008465Y-00264777D02*
Y-00274773D01*
X00836503Y-00264777D01*
X00834004D01*
X00831505Y-00267276D01*
Y-00272274D01*
X00834004Y-00274773D01*
X008465Y-00252281D02*
X00831505D01*
X00839002Y-00259778D01*
Y-00249781D01*
Y-00244783D02*
Y-00234786D01*
X008465Y-00229788D02*
Y-0022479D01*
Y-00227289D01*
X00831505D01*
X00834004Y-00229788D01*
X008465Y-00207295D02*
Y-00217292D01*
X00836503Y-00207295D01*
X00834004D01*
X00831505Y-00209794D01*
Y-00214793D01*
X00834004Y-00217292D01*
Y-00202297D02*
X00831505Y-00199798D01*
Y-00194799D01*
X00834004Y-001923D01*
X00844001D01*
X008465Y-00194799D01*
Y-00199798D01*
X00844001Y-00202297D01*
X00834004D01*
X00831505Y-00187302D02*
X008465D01*
X00841501Y-00182303D01*
X008465Y-00177305D01*
X00831505D01*
D12*
X007935Y-004885D02*
Y-0047917D01*
Y-00483835D01*
X00765509D01*
X00770174Y-004885D01*
X00779504Y-00465174D02*
Y-00446513D01*
X006575Y-00486D02*
Y-0047667D01*
Y-00481335D01*
X00629509D01*
X00634174Y-00486D01*
X00643504Y-00462674D02*
Y-00444013D01*
X00634174Y-00453344D02*
X00652835D01*
X008565Y-00467339D02*
Y-00486D01*
X00837839Y-00467339D01*
X00833174D01*
X00828509Y-00472004D01*
Y-00481335D01*
X00833174Y-00486D01*
X00842504Y-00458009D02*
Y-00439348D01*
X009925Y-00469839D02*
Y-004885D01*
X00973839Y-00469839D01*
X00969174D01*
X00964509Y-00474504D01*
Y-00483835D01*
X00969174Y-004885D01*
X00978504Y-00460509D02*
Y-00441848D01*
X00969174Y-00451179D02*
X00987834D01*
X01031424Y-00486D02*
X01026759Y-00481335D01*
Y-00472004D01*
X01031424Y-00467339D01*
X01036089D01*
X01040754Y-00472004D01*
Y-0047667D01*
Y-00472004D01*
X01045419Y-00467339D01*
X01050085D01*
X0105475Y-00472004D01*
Y-00481335D01*
X01050085Y-00486D01*
X01040754Y-00458009D02*
Y-00439348D01*
X01167424Y-004885D02*
X01162759Y-00483835D01*
Y-00474504D01*
X01167424Y-00469839D01*
X01172089D01*
X01176754Y-00474504D01*
Y-0047917D01*
Y-00474504D01*
X01181419Y-00469839D01*
X01186085D01*
X0119075Y-00474504D01*
Y-00483835D01*
X01186085Y-004885D01*
X01176754Y-00460509D02*
Y-00441848D01*
X01167424Y-00451179D02*
X01186085D01*
D13*
X018Y-0019675D02*
D03*
X01799897Y021985D02*
D03*
X00000104Y0219875D02*
D03*
X-0Y-001965D02*
D03*
D14*
X0148425Y0009025D02*
D03*
X0136925Y0021375D02*
D03*
Y-0003325D02*
D03*
X0125425Y0009025D02*
D03*
Y-0015675D02*
D03*
X0113925Y-0003325D02*
D03*
Y-0028025D02*
D03*
X0090925Y0046075D02*
D03*
X0102425Y0033725D02*
D03*
X0090925Y0021375D02*
D03*
X0102425Y0009025D02*
D03*
X0090925Y-0003325D02*
D03*
X0102425Y-0015675D02*
D03*
X0090925Y-0028025D02*
D03*
X0033425Y0009025D02*
D03*
X0044925Y0021375D02*
D03*
Y-0003325D02*
D03*
X0056425Y0009025D02*
D03*
Y-0015675D02*
D03*
X0067925Y-0003325D02*
D03*
Y-0028025D02*
D03*
X0113925Y0024125D02*
D03*
Y0048825D02*
D03*
X0125425Y0036475D02*
D03*
Y0061175D02*
D03*
X0113925Y0073525D02*
D03*
Y0098225D02*
D03*
X0125425Y0085875D02*
D03*
Y0110575D02*
D03*
X0113925Y0122925D02*
D03*
X0136925Y0098225D02*
D03*
X0125425Y0135275D02*
D03*
X0136925Y0122925D02*
D03*
X0113925Y0172325D02*
D03*
Y0147625D02*
D03*
X0125425Y0184675D02*
D03*
Y0159975D02*
D03*
Y0209375D02*
D03*
X0113925Y0197025D02*
D03*
X0148425Y0181925D02*
D03*
X0136925Y0194275D02*
D03*
X0148425Y0157225D02*
D03*
X0136925Y0169575D02*
D03*
X0148425Y0132525D02*
D03*
X0136925Y0144875D02*
D03*
X0148425Y0107825D02*
D03*
X0159925Y0120175D02*
D03*
Y0070775D02*
D03*
Y0095475D02*
D03*
X0148425Y0058425D02*
D03*
Y0083125D02*
D03*
X0136925Y0046075D02*
D03*
Y0070775D02*
D03*
X0148425Y0033725D02*
D03*
X0079425Y0011775D02*
D03*
Y-0012925D02*
D03*
Y0061175D02*
D03*
Y0036475D02*
D03*
Y0110575D02*
D03*
Y0085875D02*
D03*
Y0159975D02*
D03*
Y0135275D02*
D03*
Y0209375D02*
D03*
Y0184675D02*
D03*
X0090925Y0221725D02*
D03*
X0067925D02*
D03*
X0056425Y0234075D02*
D03*
X0079425D02*
D03*
X0067925Y0246425D02*
D03*
X0091Y0246175D02*
D03*
X0102425Y0231325D02*
D03*
X0113925Y0243675D02*
D03*
Y0218975D02*
D03*
X0125425Y0231325D02*
D03*
X0090925Y0194275D02*
D03*
X0102425Y0206625D02*
D03*
X0090925Y0169575D02*
D03*
X0102425Y0181925D02*
D03*
X0090925Y0144875D02*
D03*
X0102425Y0157225D02*
D03*
X0090925Y0120175D02*
D03*
X0102425Y0132525D02*
D03*
X0090925Y0095475D02*
D03*
X0102425Y0107825D02*
D03*
X0090925Y0070775D02*
D03*
X0102425Y0083125D02*
D03*
Y0058425D02*
D03*
X0067925Y0024125D02*
D03*
Y0048825D02*
D03*
X0056425Y0036475D02*
D03*
Y0061175D02*
D03*
X0067925Y0073525D02*
D03*
Y0098225D02*
D03*
X0056425Y0085875D02*
D03*
Y0110575D02*
D03*
X0067925Y0122925D02*
D03*
X0044925Y0098225D02*
D03*
X0056425Y0135275D02*
D03*
X0044925Y0122925D02*
D03*
X0067925Y0172325D02*
D03*
Y0147625D02*
D03*
X0056425Y0184675D02*
D03*
Y0159975D02*
D03*
Y0209375D02*
D03*
X0067925Y0197025D02*
D03*
X0033425Y0181925D02*
D03*
X0044925Y0194275D02*
D03*
X0033425Y0157225D02*
D03*
X0044925Y0169575D02*
D03*
X0033425Y0132525D02*
D03*
X0044925Y0144875D02*
D03*
X0033425Y0107825D02*
D03*
X0021925Y0120175D02*
D03*
Y0070775D02*
D03*
Y0095475D02*
D03*
X0033425Y0058425D02*
D03*
Y0083125D02*
D03*
X0044925Y0046075D02*
D03*
Y0070775D02*
D03*
X0033425Y0033725D02*
D03*
D15*
X0148425Y0011225D02*
D03*
X0136925Y0023575D02*
D03*
Y-0001125D02*
D03*
X0125425Y0011225D02*
D03*
Y-0013475D02*
D03*
X0113925Y-0001125D02*
D03*
Y-0025825D02*
D03*
X0090925Y0048275D02*
D03*
X0102425Y0035925D02*
D03*
X0090925Y0023575D02*
D03*
X0102425Y0011225D02*
D03*
X0090925Y-0001125D02*
D03*
X0102425Y-0013475D02*
D03*
X0090925Y-0025825D02*
D03*
X0033425Y0011225D02*
D03*
X0044925Y0023575D02*
D03*
Y-0001125D02*
D03*
X0056425Y0011225D02*
D03*
Y-0013475D02*
D03*
X0067925Y-0001125D02*
D03*
Y-0025825D02*
D03*
X0113925Y0021925D02*
D03*
Y0046625D02*
D03*
X0125425Y0034275D02*
D03*
Y0058975D02*
D03*
X0113925Y0071325D02*
D03*
Y0096025D02*
D03*
X0125425Y0083675D02*
D03*
Y0108375D02*
D03*
X0113925Y0120725D02*
D03*
X0136925Y0096025D02*
D03*
X0125425Y0133075D02*
D03*
X0136925Y0120725D02*
D03*
X0113925Y0170125D02*
D03*
Y0145425D02*
D03*
X0125425Y0182475D02*
D03*
Y0157775D02*
D03*
Y0207175D02*
D03*
X0113925Y0194825D02*
D03*
X0148425Y0184125D02*
D03*
X0136925Y0196475D02*
D03*
X0148425Y0159425D02*
D03*
X0136925Y0171775D02*
D03*
X0148425Y0134725D02*
D03*
X0136925Y0147075D02*
D03*
X0148425Y0110025D02*
D03*
X0159925Y0122375D02*
D03*
Y0072975D02*
D03*
Y0097675D02*
D03*
X0148425Y0060625D02*
D03*
Y0085325D02*
D03*
X0136925Y0048275D02*
D03*
Y0072975D02*
D03*
X0148425Y0035925D02*
D03*
X0079425Y0009575D02*
D03*
Y-0015125D02*
D03*
Y0058975D02*
D03*
Y0034275D02*
D03*
Y0108375D02*
D03*
Y0083675D02*
D03*
Y0157775D02*
D03*
Y0133075D02*
D03*
Y0207175D02*
D03*
Y0182475D02*
D03*
X0090925Y0219525D02*
D03*
X0067925D02*
D03*
X0056425Y0231875D02*
D03*
X0079425D02*
D03*
X0067925Y0244225D02*
D03*
X0091Y0243975D02*
D03*
X0102425Y0233525D02*
D03*
X0113925Y0245875D02*
D03*
Y0221175D02*
D03*
X0125425Y0233525D02*
D03*
X0090925Y0196475D02*
D03*
X0102425Y0208825D02*
D03*
X0090925Y0171775D02*
D03*
X0102425Y0184125D02*
D03*
X0090925Y0147075D02*
D03*
X0102425Y0159425D02*
D03*
X0090925Y0122375D02*
D03*
X0102425Y0134725D02*
D03*
X0090925Y0097675D02*
D03*
X0102425Y0110025D02*
D03*
X0090925Y0072975D02*
D03*
X0102425Y0085325D02*
D03*
Y0060625D02*
D03*
X0067925Y0021925D02*
D03*
Y0046625D02*
D03*
X0056425Y0034275D02*
D03*
Y0058975D02*
D03*
X0067925Y0071325D02*
D03*
Y0096025D02*
D03*
X0056425Y0083675D02*
D03*
Y0108375D02*
D03*
X0067925Y0120725D02*
D03*
X0044925Y0096025D02*
D03*
X0056425Y0133075D02*
D03*
X0044925Y0120725D02*
D03*
X0067925Y0170125D02*
D03*
Y0145425D02*
D03*
X0056425Y0182475D02*
D03*
Y0157775D02*
D03*
Y0207175D02*
D03*
X0067925Y0194825D02*
D03*
X0033425Y0184125D02*
D03*
X0044925Y0196475D02*
D03*
X0033425Y0159425D02*
D03*
X0044925Y0171775D02*
D03*
X0033425Y0134725D02*
D03*
X0044925Y0147075D02*
D03*
X0033425Y0110025D02*
D03*
X0021925Y0122375D02*
D03*
Y0072975D02*
D03*
Y0097675D02*
D03*
X0033425Y0060625D02*
D03*
Y0085325D02*
D03*
X0044925Y0048275D02*
D03*
Y0072975D02*
D03*
X0033425Y0035925D02*
D03*
D16*
X0113875Y-004665D02*
D03*
X01077D02*
D03*
X007415D02*
D03*
X0067975D02*
D03*
X0087875D02*
D03*
X009405D02*
D03*
D17*
X0090925Y003535D02*
D03*
Y015935D02*
D03*
X0022925Y014735D02*
D03*
X0158925D02*
D03*
Y004735D02*
D03*
X0022925D02*
D03*
X0045925Y022135D02*
D03*
X0135925D02*
D03*
X0045925Y-002665D02*
D03*
X0135925D02*
D03*
M02*
