G04 Layer_Color=8388736*
%FSTAX44Y44*%
%MOMM*%
G71*
G01*
G75*
%ADD10C,0.2000*%
D10*
X00489249Y02197847D02*
X00409249D01*
Y02107847D02*
Y02197847D01*
X00489249Y02107847D02*
X00409249D01*
X00489249D02*
Y02197847D01*
X01409249D02*
X01329249D01*
Y02107847D02*
Y02197847D01*
X01409249Y02107847D02*
X01329249D01*
X01409249D02*
Y02197847D01*
X01294249Y02074347D02*
X01214249D01*
Y01984347D02*
Y02074347D01*
X01294249Y01984347D02*
X01214249D01*
X01294249D02*
Y02074347D01*
Y02231347D02*
Y02321347D01*
Y02231347D02*
X01214249D01*
Y02321347D01*
X01294249D02*
X01214249D01*
X01294249Y02478347D02*
Y02568347D01*
Y02478347D02*
X01214249D01*
Y02568347D01*
X01294249D02*
X01214249D01*
X01179249Y01950847D02*
X01099249D01*
Y01860846D02*
Y01950847D01*
X01179249Y01860846D02*
X01099249D01*
X01179249D02*
Y01950847D01*
Y02107847D02*
Y02197847D01*
Y02107847D02*
X01099249D01*
Y02197847D01*
X01179249D02*
X01099249D01*
X01179249Y02354846D02*
Y02444846D01*
Y02354846D02*
X01099249D01*
Y02444846D01*
X01179249D02*
X01099249D01*
X01179249Y02601846D02*
Y02691847D01*
Y02601846D02*
X01099249D01*
Y02691847D01*
X01179249D02*
X01099249D01*
X01064249Y02074347D02*
X00984249D01*
Y01984347D02*
Y02074347D01*
X01064249Y01984347D02*
X00984249D01*
X01064249D02*
Y02074347D01*
Y02231347D02*
Y02321347D01*
Y02231347D02*
X00984249D01*
Y02321347D01*
X01064249D02*
X00984249D01*
X01064249Y02478347D02*
Y02568347D01*
Y02478347D02*
X00984249D01*
Y02568347D01*
X01064249D02*
X00984249D01*
X00949249Y01950847D02*
X00869249D01*
Y01860846D02*
Y01950847D01*
X00949249Y01860846D02*
X00869249D01*
X00949249D02*
Y01950847D01*
Y02107847D02*
Y02197847D01*
Y02107847D02*
X00869249D01*
Y02197847D01*
X00949249D02*
X00869249D01*
X00949249Y02354846D02*
Y02444846D01*
Y02354846D02*
X00869249D01*
Y02444846D01*
X00949249D02*
X00869249D01*
X00949249Y02601846D02*
Y02691847D01*
Y02601846D02*
X00869249D01*
Y02691847D01*
X00949249D02*
X00869249D01*
X00834249Y02074347D02*
X00754249D01*
Y01984347D02*
Y02074347D01*
X00834249Y01984347D02*
X00754249D01*
X00834249D02*
Y02074347D01*
Y02231347D02*
Y02321347D01*
Y02231347D02*
X00754249D01*
Y02321347D01*
X00834249D02*
X00754249D01*
X00834249Y02478347D02*
Y02568347D01*
Y02478347D02*
X00754249D01*
Y02568347D01*
X00834249D02*
X00754249D01*
X00719249Y01950847D02*
X00639249D01*
Y01860846D02*
Y01950847D01*
X00719249Y01860846D02*
X00639249D01*
X00719249D02*
Y01950847D01*
Y02107847D02*
Y02197847D01*
Y02107847D02*
X00639249D01*
Y02197847D01*
X00719249D02*
X00639249D01*
X00719249Y02354846D02*
Y02444846D01*
Y02354846D02*
X00639249D01*
Y02444846D01*
X00719249D02*
X00639249D01*
X00719249Y02601846D02*
Y02691847D01*
Y02601846D02*
X00639249D01*
Y02691847D01*
X00719249D02*
X00639249D01*
X00604249Y02074347D02*
X00524249D01*
Y01984347D02*
Y02074347D01*
X00604249Y01984347D02*
X00524249D01*
X00604249D02*
Y02074347D01*
Y02231347D02*
Y02321347D01*
Y02231347D02*
X00524249D01*
Y02321347D01*
X00604249D02*
X00524249D01*
X00604249Y02478347D02*
Y02568347D01*
Y02478347D02*
X00524249D01*
Y02568347D01*
X00604249D02*
X00524249D01*
X00374249Y02074347D02*
X00294249D01*
X00374249Y01984347D02*
Y02074347D01*
X01639249Y00962847D02*
X01559249D01*
Y00872847D02*
Y00962847D01*
X01639249Y00872847D02*
X01559249D01*
X01639249D02*
Y00962847D01*
Y01119846D02*
Y01209847D01*
Y01119846D02*
X01559249D01*
Y01209847D01*
X01639249D02*
X01559249D01*
X01639249Y01366846D02*
Y01456846D01*
Y01366846D02*
X01559249D01*
Y01456846D01*
X01639249D02*
X01559249D01*
X01524249Y00345347D02*
X01444249D01*
Y00255347D02*
Y00345347D01*
X01524249Y00255347D02*
X01444249D01*
X01524249D02*
Y00345347D01*
Y00502347D02*
Y00592347D01*
Y00502347D02*
X01444249D01*
Y00592347D01*
X01524249D02*
X01444249D01*
X01524249Y00749347D02*
Y00839347D01*
Y00749347D02*
X01444249D01*
Y00839347D01*
X01524249D02*
X01444249D01*
X01524249Y00996347D02*
Y01086347D01*
Y00996347D02*
X01444249D01*
Y01086347D01*
X01524249D02*
X01444249D01*
X01524249Y01243347D02*
Y01333347D01*
Y01243347D02*
X01444249D01*
Y01333347D01*
X01524249D02*
X01444249D01*
X01524249Y01490347D02*
Y01580347D01*
Y01490347D02*
X01444249D01*
Y01580347D01*
X01524249D02*
X01444249D01*
X01524249Y01737347D02*
Y01827347D01*
Y01737347D02*
X01444249D01*
Y01827347D01*
X01524249D02*
X01444249D01*
X01524249Y01984347D02*
Y02074347D01*
Y01984347D02*
X01444249D01*
Y02074347D01*
X01524249D02*
X01444249D01*
X01409249Y00221847D02*
X01329249D01*
Y00131847D02*
Y00221847D01*
X01409249Y00131847D02*
X01329249D01*
X01409249D02*
Y00221847D01*
Y00378847D02*
Y00468847D01*
Y00378847D02*
X01329249D01*
Y00468847D01*
X01409249D02*
X01329249D01*
X01409249Y00625847D02*
Y00715847D01*
Y00625847D02*
X01329249D01*
Y00715847D01*
X01409249D02*
X01329249D01*
X01409249Y00872847D02*
Y00962847D01*
Y00872847D02*
X01329249D01*
Y00962847D01*
X01409249D02*
X01329249D01*
X01409249Y01119847D02*
Y01209847D01*
Y01119847D02*
X01329249D01*
Y01209847D01*
X01409249D02*
X01329249D01*
X01409249Y01366846D02*
Y01456846D01*
Y01366846D02*
X01329249D01*
Y01456846D01*
X01409249D02*
X01329249D01*
X01409249Y01613847D02*
Y01703847D01*
Y01613847D02*
X01329249D01*
Y01703847D01*
X01409249D02*
X01329249D01*
X01409249Y01860847D02*
Y01950847D01*
Y01860847D02*
X01329249D01*
Y01950847D01*
X01409249D02*
X01329249D01*
X01294249Y00098347D02*
X01214249D01*
Y00008346D02*
Y00098347D01*
X01294249Y00008346D02*
X01214249D01*
X01294249D02*
Y00098347D01*
Y00255347D02*
Y00345347D01*
Y00255347D02*
X01214249D01*
Y00345347D01*
X01294249D02*
X01214249D01*
X01294249Y00502346D02*
Y00592347D01*
Y00502346D02*
X01214249D01*
Y00592347D01*
X01294249D02*
X01214249D01*
X01294249Y00749346D02*
Y00839347D01*
Y00749346D02*
X01214249D01*
Y00839347D01*
X01294249D02*
X01214249D01*
X01294249Y00996347D02*
Y01086347D01*
Y00996347D02*
X01214249D01*
Y01086347D01*
X01294249D02*
X01214249D01*
X01294249Y01243346D02*
Y01333347D01*
Y01243346D02*
X01214249D01*
Y01333347D01*
X01294249D02*
X01214249D01*
X01294249Y01490347D02*
Y01580347D01*
Y01490347D02*
X01214249D01*
Y01580347D01*
X01294249D02*
X01214249D01*
X01294249Y01737346D02*
Y01827347D01*
Y01737346D02*
X01214249D01*
Y01827347D01*
X01294249D02*
X01214249D01*
X01179249Y-00025153D02*
X01099249D01*
Y-00115154D02*
Y-00025153D01*
X01179249Y-00115154D02*
X01099249D01*
X01179249D02*
Y-00025153D01*
Y00131847D02*
Y00221847D01*
Y00131847D02*
X01099249D01*
Y00221847D01*
X01179249D02*
X01099249D01*
X01179249Y00378847D02*
Y00468847D01*
Y00378847D02*
X01099249D01*
Y00468847D01*
X01179249D02*
X01099249D01*
X01179249Y00625846D02*
Y00715846D01*
Y00625846D02*
X01099249D01*
Y00715846D01*
X01179249D02*
X01099249D01*
X01179249Y00872847D02*
Y00962847D01*
Y00872847D02*
X01099249D01*
Y00962847D01*
X01179249D02*
X01099249D01*
X01179249Y01119846D02*
Y01209846D01*
Y01119846D02*
X01099249D01*
Y01209846D01*
X01179249D02*
X01099249D01*
X01179249Y01366847D02*
Y01456847D01*
Y01366847D02*
X01099249D01*
Y01456847D01*
X01179249D02*
X01099249D01*
X01179249Y01613846D02*
Y01703847D01*
Y01613846D02*
X01099249D01*
Y01703847D01*
X01179249D02*
X01099249D01*
X01064249Y00098347D02*
X00984249D01*
Y00008346D02*
Y00098347D01*
X01064249Y00008346D02*
X00984249D01*
X01064249D02*
Y00098347D01*
Y00255347D02*
Y00345347D01*
Y00255347D02*
X00984249D01*
Y00345347D01*
X01064249D02*
X00984249D01*
X01064249Y00502346D02*
Y00592347D01*
Y00502346D02*
X00984249D01*
Y00592347D01*
X01064249D02*
X00984249D01*
X01064249Y00749346D02*
Y00839347D01*
Y00749346D02*
X00984249D01*
Y00839347D01*
X01064249D02*
X00984249D01*
X01064249Y00996347D02*
Y01086347D01*
Y00996347D02*
X00984249D01*
Y01086347D01*
X01064249D02*
X00984249D01*
X01064249Y01243346D02*
Y01333347D01*
Y01243346D02*
X00984249D01*
Y01333347D01*
X01064249D02*
X00984249D01*
X01064249Y01490347D02*
Y01580347D01*
Y01490347D02*
X00984249D01*
Y01580347D01*
X01064249D02*
X00984249D01*
X01064249Y01737346D02*
Y01827347D01*
Y01737346D02*
X00984249D01*
Y01827347D01*
X01064249D02*
X00984249D01*
X00949249Y-00025153D02*
X00869249D01*
Y-00115154D02*
Y-00025153D01*
X00949249Y-00115154D02*
X00869249D01*
X00949249D02*
Y-00025153D01*
Y00131847D02*
Y00221847D01*
Y00131847D02*
X00869249D01*
Y00221847D01*
X00949249D02*
X00869249D01*
X00949249Y00378847D02*
Y00468847D01*
Y00378847D02*
X00869249D01*
Y00468847D01*
X00949249D02*
X00869249D01*
X00949249Y00625846D02*
Y00715846D01*
Y00625846D02*
X00869249D01*
Y00715846D01*
X00949249D02*
X00869249D01*
X00949249Y00872847D02*
Y00962847D01*
Y00872847D02*
X00869249D01*
Y00962847D01*
X00949249D02*
X00869249D01*
X00949249Y01119846D02*
Y01209846D01*
Y01119846D02*
X00869249D01*
Y01209846D01*
X00949249D02*
X00869249D01*
X00949249Y01366847D02*
Y01456847D01*
Y01366847D02*
X00869249D01*
Y01456847D01*
X00949249D02*
X00869249D01*
X00949249Y01613846D02*
Y01703847D01*
Y01613846D02*
X00869249D01*
Y01703847D01*
X00949249D02*
X00869249D01*
X00834249Y00098347D02*
X00754249D01*
Y00008346D02*
Y00098347D01*
X00834249Y00008346D02*
X00754249D01*
X00834249D02*
Y00098347D01*
Y00255347D02*
Y00345347D01*
Y00255347D02*
X00754249D01*
Y00345347D01*
X00834249D02*
X00754249D01*
X00834249Y00502346D02*
Y00592347D01*
Y00502346D02*
X00754249D01*
Y00592347D01*
X00834249D02*
X00754249D01*
X00834249Y00749346D02*
Y00839347D01*
Y00749346D02*
X00754249D01*
Y00839347D01*
X00834249D02*
X00754249D01*
X00834249Y00996347D02*
Y01086347D01*
Y00996347D02*
X00754249D01*
Y01086347D01*
X00834249D02*
X00754249D01*
X00834249Y01243346D02*
Y01333347D01*
Y01243346D02*
X00754249D01*
Y01333347D01*
X00834249D02*
X00754249D01*
X00834249Y01490347D02*
Y01580347D01*
Y01490347D02*
X00754249D01*
Y01580347D01*
X00834249D02*
X00754249D01*
X00834249Y01737346D02*
Y01827347D01*
Y01737346D02*
X00754249D01*
Y01827347D01*
X00834249D02*
X00754249D01*
X00259249Y00962847D02*
X00179249D01*
Y00872847D02*
Y00962847D01*
X00259249Y00872847D02*
X00179249D01*
X00259249D02*
Y00962847D01*
Y01119846D02*
Y01209847D01*
Y01119846D02*
X00179249D01*
Y01209847D01*
X00259249D02*
X00179249D01*
X00259249Y01366846D02*
Y01456846D01*
Y01366846D02*
X00179249D01*
Y01456846D01*
X00259249D02*
X00179249D01*
X00719249Y-00025153D02*
X00639249D01*
Y-00115154D02*
Y-00025153D01*
X00719249Y-00115154D02*
X00639249D01*
X00719249D02*
Y-00025153D01*
Y00131847D02*
Y00221847D01*
Y00131847D02*
X00639249D01*
Y00221847D01*
X00719249D02*
X00639249D01*
X00719249Y00378847D02*
Y00468847D01*
Y00378847D02*
X00639249D01*
Y00468847D01*
X00719249D02*
X00639249D01*
X00719249Y00625846D02*
Y00715846D01*
Y00625846D02*
X00639249D01*
Y00715846D01*
X00719249D02*
X00639249D01*
X00719249Y00872847D02*
Y00962847D01*
Y00872847D02*
X00639249D01*
Y00962847D01*
X00719249D02*
X00639249D01*
X00719249Y01119846D02*
Y01209846D01*
Y01119846D02*
X00639249D01*
Y01209846D01*
X00719249D02*
X00639249D01*
X00719249Y01366847D02*
Y01456847D01*
Y01366847D02*
X00639249D01*
Y01456847D01*
X00719249D02*
X00639249D01*
X00719249Y01613846D02*
Y01703847D01*
Y01613846D02*
X00639249D01*
Y01703847D01*
X00719249D02*
X00639249D01*
X00604249Y00098347D02*
X00524249D01*
Y00008346D02*
Y00098347D01*
X00604249Y00008346D02*
X00524249D01*
X00604249D02*
Y00098347D01*
Y00255347D02*
Y00345347D01*
Y00255347D02*
X00524249D01*
Y00345347D01*
X00604249D02*
X00524249D01*
X00604249Y00502346D02*
Y00592347D01*
Y00502346D02*
X00524249D01*
Y00592347D01*
X00604249D02*
X00524249D01*
X00604249Y00749346D02*
Y00839347D01*
Y00749346D02*
X00524249D01*
Y00839347D01*
X00604249D02*
X00524249D01*
X00604249Y00996347D02*
Y01086347D01*
Y00996347D02*
X00524249D01*
Y01086347D01*
X00604249D02*
X00524249D01*
X00604249Y01243346D02*
Y01333347D01*
Y01243346D02*
X00524249D01*
Y01333347D01*
X00604249D02*
X00524249D01*
X00604249Y01490347D02*
Y01580347D01*
Y01490347D02*
X00524249D01*
Y01580347D01*
X00604249D02*
X00524249D01*
X00604249Y01737346D02*
Y01827347D01*
Y01737346D02*
X00524249D01*
Y01827347D01*
X00604249D02*
X00524249D01*
X00487999Y00221847D02*
X00407999D01*
Y00131847D02*
Y00221847D01*
X00487999Y00131847D02*
X00407999D01*
X00487999D02*
Y00221847D01*
Y00378847D02*
Y00468847D01*
Y00378847D02*
X00407999D01*
Y00468847D01*
X00487999D02*
X00407999D01*
X00487999Y00625847D02*
Y00715847D01*
Y00625847D02*
X00407999D01*
Y00715847D01*
X00487999D02*
X00407999D01*
X00487999Y00872847D02*
Y00962847D01*
Y00872847D02*
X00407999D01*
Y00962847D01*
X00487999D02*
X00407999D01*
X00487999Y01119847D02*
Y01209847D01*
Y01119847D02*
X00407999D01*
Y01209847D01*
X00487999D02*
X00407999D01*
X00487999Y01366846D02*
Y01456846D01*
Y01366846D02*
X00407999D01*
Y01456846D01*
X00487999D02*
X00407999D01*
X00487999Y01613847D02*
Y01703847D01*
Y01613847D02*
X00407999D01*
Y01703847D01*
X00487999D02*
X00407999D01*
X00487999Y01860847D02*
Y01950847D01*
Y01860847D02*
X00407999D01*
Y01950847D01*
X00487999D02*
X00407999D01*
X00294249Y01984347D02*
Y02074347D01*
X00374249Y01984347D02*
X00294249D01*
X00374249Y01827347D02*
X00294249D01*
Y01737347D02*
Y01827347D01*
X00374249Y01737347D02*
X00294249D01*
X00374249D02*
Y01827347D01*
Y01580347D02*
X00294249D01*
Y01490347D02*
Y01580347D01*
X00374249Y01490347D02*
X00294249D01*
X00374249D02*
Y01580347D01*
Y01333347D02*
X00294249D01*
Y01243347D02*
Y01333347D01*
X00374249Y01243347D02*
X00294249D01*
X00374249D02*
Y01333347D01*
Y01086347D02*
X00294249D01*
Y00996347D02*
Y01086347D01*
X00374249Y00996347D02*
X00294249D01*
X00374249D02*
Y01086347D01*
Y00839347D02*
X00294249D01*
Y00749347D02*
Y00839347D01*
X00374249Y00749347D02*
X00294249D01*
X00374249D02*
Y00839347D01*
Y00592347D02*
X00294249D01*
Y00502347D02*
Y00592347D01*
X00374249Y00502347D02*
X00294249D01*
X00374249D02*
Y00592347D01*
Y00255347D02*
Y00345347D01*
Y00255347D02*
X00294249D01*
Y00345347D01*
X00374249D02*
X00294249D01*
M02*
