G04 Layer_Color=8388736*
%FSTAX44Y44*%
%MOMM*%
G71*
G01*
G75*
%ADD10C,0.2000*%
D10*
X01647847Y00420001D02*
Y00500001D01*
X01557847D02*
X01647847D01*
X01557847Y00420001D02*
Y00500001D01*
Y00420001D02*
X01647847D01*
Y-00499999D02*
Y-00419999D01*
X01557847D02*
X01647847D01*
X01557847Y-00499999D02*
Y-00419999D01*
Y-00499999D02*
X01647847D01*
X01524347Y-00384999D02*
Y-00304999D01*
X01434347D02*
X01524347D01*
X01434347Y-00384999D02*
Y-00304999D01*
Y-00384999D02*
X01524347D01*
X01681347D02*
X01771347D01*
X01681347D02*
Y-00304999D01*
X01771347D01*
Y-00384999D02*
Y-00304999D01*
X01928347Y-00384999D02*
X02018347D01*
X01928347D02*
Y-00304999D01*
X02018347D01*
Y-00384999D02*
Y-00304999D01*
X01400847Y-00269999D02*
Y-00189999D01*
X01310847D02*
X01400847D01*
X01310847Y-00269999D02*
Y-00189999D01*
Y-00269999D02*
X01400847D01*
X01557847D02*
X01647847D01*
X01557847D02*
Y-00189999D01*
X01647847D01*
Y-00269999D02*
Y-00189999D01*
X01804846Y-00269999D02*
X01894846D01*
X01804846D02*
Y-00189999D01*
X01894846D01*
Y-00269999D02*
Y-00189999D01*
X02051846Y-00269999D02*
X02141846D01*
X02051846D02*
Y-00189999D01*
X02141846D01*
Y-00269999D02*
Y-00189999D01*
X01524347Y-00154999D02*
Y-00074999D01*
X01434347D02*
X01524347D01*
X01434347Y-00154999D02*
Y-00074999D01*
Y-00154999D02*
X01524347D01*
X01681347D02*
X01771347D01*
X01681347D02*
Y-00074999D01*
X01771347D01*
Y-00154999D02*
Y-00074999D01*
X01928347Y-00154999D02*
X02018347D01*
X01928347D02*
Y-00074999D01*
X02018347D01*
Y-00154999D02*
Y-00074999D01*
X01400847Y-00039999D02*
Y00040001D01*
X01310847D02*
X01400847D01*
X01310847Y-00039999D02*
Y00040001D01*
Y-00039999D02*
X01400847D01*
X01557847D02*
X01647847D01*
X01557847D02*
Y00040001D01*
X01647847D01*
Y-00039999D02*
Y00040001D01*
X01804846Y-00039999D02*
X01894846D01*
X01804846D02*
Y00040001D01*
X01894846D01*
Y-00039999D02*
Y00040001D01*
X02051846Y-00039999D02*
X02141846D01*
X02051846D02*
Y00040001D01*
X02141846D01*
Y-00039999D02*
Y00040001D01*
X01524347Y00075001D02*
Y00155001D01*
X01434347D02*
X01524347D01*
X01434347Y00075001D02*
Y00155001D01*
Y00075001D02*
X01524347D01*
X01681347D02*
X01771347D01*
X01681347D02*
Y00155001D01*
X01771347D01*
Y00075001D02*
Y00155001D01*
X01928347Y00075001D02*
X02018347D01*
X01928347D02*
Y00155001D01*
X02018347D01*
Y00075001D02*
Y00155001D01*
X01400847Y00190001D02*
Y00270001D01*
X01310847D02*
X01400847D01*
X01310847Y00190001D02*
Y00270001D01*
Y00190001D02*
X01400847D01*
X01557847D02*
X01647847D01*
X01557847D02*
Y00270001D01*
X01647847D01*
Y00190001D02*
Y00270001D01*
X01804846Y00190001D02*
X01894846D01*
X01804846D02*
Y00270001D01*
X01894846D01*
Y00190001D02*
Y00270001D01*
X02051846Y00190001D02*
X02141846D01*
X02051846D02*
Y00270001D01*
X02141846D01*
Y00190001D02*
Y00270001D01*
X01524347Y00305001D02*
Y00385001D01*
X01434347D02*
X01524347D01*
X01434347Y00305001D02*
Y00385001D01*
Y00305001D02*
X01524347D01*
X01681347D02*
X01771347D01*
X01681347D02*
Y00385001D01*
X01771347D01*
Y00305001D02*
Y00385001D01*
X01928347Y00305001D02*
X02018347D01*
X01928347D02*
Y00385001D01*
X02018347D01*
Y00305001D02*
Y00385001D01*
X01524347Y00535001D02*
Y00615001D01*
X01434347Y00535001D02*
X01524347D01*
X00412846Y-00729999D02*
Y-00649999D01*
X00322846D02*
X00412846D01*
X00322846Y-00729999D02*
Y-00649999D01*
Y-00729999D02*
X00412846D01*
X00569846D02*
X00659847D01*
X00569846D02*
Y-00649999D01*
X00659847D01*
Y-00729999D02*
Y-00649999D01*
X00816846Y-00729999D02*
X00906846D01*
X00816846D02*
Y-00649999D01*
X00906846D01*
Y-00729999D02*
Y-00649999D01*
X-00204653Y-00614999D02*
Y-00534999D01*
X-00294653D02*
X-00204653D01*
X-00294653Y-00614999D02*
Y-00534999D01*
Y-00614999D02*
X-00204653D01*
X-00047653D02*
X00042347D01*
X-00047653D02*
Y-00534999D01*
X00042347D01*
Y-00614999D02*
Y-00534999D01*
X00199347Y-00614999D02*
X00289347D01*
X00199347D02*
Y-00534999D01*
X00289347D01*
Y-00614999D02*
Y-00534999D01*
X00446347Y-00614999D02*
X00536347D01*
X00446347D02*
Y-00534999D01*
X00536347D01*
Y-00614999D02*
Y-00534999D01*
X00693347Y-00614999D02*
X00783347D01*
X00693347D02*
Y-00534999D01*
X00783347D01*
Y-00614999D02*
Y-00534999D01*
X00940347Y-00614999D02*
X01030347D01*
X00940347D02*
Y-00534999D01*
X01030347D01*
Y-00614999D02*
Y-00534999D01*
X01187347Y-00614999D02*
X01277347D01*
X01187347D02*
Y-00534999D01*
X01277347D01*
Y-00614999D02*
Y-00534999D01*
X01434347Y-00614999D02*
X01524347D01*
X01434347D02*
Y-00534999D01*
X01524347D01*
Y-00614999D02*
Y-00534999D01*
X-00328153Y-00499999D02*
Y-00419999D01*
X-00418153D02*
X-00328153D01*
X-00418153Y-00499999D02*
Y-00419999D01*
Y-00499999D02*
X-00328153D01*
X-00171153D02*
X-00081153D01*
X-00171153D02*
Y-00419999D01*
X-00081153D01*
Y-00499999D02*
Y-00419999D01*
X00075847Y-00499999D02*
X00165847D01*
X00075847D02*
Y-00419999D01*
X00165847D01*
Y-00499999D02*
Y-00419999D01*
X00322846Y-00499999D02*
X00412847D01*
X00322846D02*
Y-00419999D01*
X00412847D01*
Y-00499999D02*
Y-00419999D01*
X00569847Y-00499999D02*
X00659847D01*
X00569847D02*
Y-00419999D01*
X00659847D01*
Y-00499999D02*
Y-00419999D01*
X00816846Y-00499999D02*
X00906846D01*
X00816846D02*
Y-00419999D01*
X00906846D01*
Y-00499999D02*
Y-00419999D01*
X01063847Y-00499999D02*
X01153847D01*
X01063847D02*
Y-00419999D01*
X01153847D01*
Y-00499999D02*
Y-00419999D01*
X01310847Y-00499999D02*
X01400847D01*
X01310847D02*
Y-00419999D01*
X01400847D01*
Y-00499999D02*
Y-00419999D01*
X-00451653Y-00384999D02*
Y-00304999D01*
X-00541654D02*
X-00451653D01*
X-00541654Y-00384999D02*
Y-00304999D01*
Y-00384999D02*
X-00451653D01*
X-00294653D02*
X-00204653D01*
X-00294653D02*
Y-00304999D01*
X-00204653D01*
Y-00384999D02*
Y-00304999D01*
X-00047653Y-00384999D02*
X00042347D01*
X-00047653D02*
Y-00304999D01*
X00042347D01*
Y-00384999D02*
Y-00304999D01*
X00199347Y-00384999D02*
X00289347D01*
X00199347D02*
Y-00304999D01*
X00289347D01*
Y-00384999D02*
Y-00304999D01*
X00446347Y-00384999D02*
X00536347D01*
X00446347D02*
Y-00304999D01*
X00536347D01*
Y-00384999D02*
Y-00304999D01*
X00693346Y-00384999D02*
X00783346D01*
X00693346D02*
Y-00304999D01*
X00783346D01*
Y-00384999D02*
Y-00304999D01*
X00940347Y-00384999D02*
X01030347D01*
X00940347D02*
Y-00304999D01*
X01030347D01*
Y-00384999D02*
Y-00304999D01*
X01187346Y-00384999D02*
X01277347D01*
X01187346D02*
Y-00304999D01*
X01277347D01*
Y-00384999D02*
Y-00304999D01*
X-00575153Y-00269999D02*
Y-00189999D01*
X-00665154D02*
X-00575153D01*
X-00665154Y-00269999D02*
Y-00189999D01*
Y-00269999D02*
X-00575153D01*
X-00418153D02*
X-00328153D01*
X-00418153D02*
Y-00189999D01*
X-00328153D01*
Y-00269999D02*
Y-00189999D01*
X-00171154Y-00269999D02*
X-00081153D01*
X-00171154D02*
Y-00189999D01*
X-00081153D01*
Y-00269999D02*
Y-00189999D01*
X00075847Y-00269999D02*
X00165847D01*
X00075847D02*
Y-00189999D01*
X00165847D01*
Y-00269999D02*
Y-00189999D01*
X00322846Y-00269999D02*
X00412847D01*
X00322846D02*
Y-00189999D01*
X00412847D01*
Y-00269999D02*
Y-00189999D01*
X00569846Y-00269999D02*
X00659846D01*
X00569846D02*
Y-00189999D01*
X00659846D01*
Y-00269999D02*
Y-00189999D01*
X00816847Y-00269999D02*
X00906847D01*
X00816847D02*
Y-00189999D01*
X00906847D01*
Y-00269999D02*
Y-00189999D01*
X01063847Y-00269999D02*
X01153847D01*
X01063847D02*
Y-00189999D01*
X01153847D01*
Y-00269999D02*
Y-00189999D01*
X-00451653Y-00154999D02*
Y-00074999D01*
X-00541654D02*
X-00451653D01*
X-00541654Y-00154999D02*
Y-00074999D01*
Y-00154999D02*
X-00451653D01*
X-00294653D02*
X-00204653D01*
X-00294653D02*
Y-00074999D01*
X-00204653D01*
Y-00154999D02*
Y-00074999D01*
X-00047653Y-00154999D02*
X00042347D01*
X-00047653D02*
Y-00074999D01*
X00042347D01*
Y-00154999D02*
Y-00074999D01*
X00199347Y-00154999D02*
X00289347D01*
X00199347D02*
Y-00074999D01*
X00289347D01*
Y-00154999D02*
Y-00074999D01*
X00446347Y-00154999D02*
X00536347D01*
X00446347D02*
Y-00074999D01*
X00536347D01*
Y-00154999D02*
Y-00074999D01*
X00693346Y-00154999D02*
X00783346D01*
X00693346D02*
Y-00074999D01*
X00783346D01*
Y-00154999D02*
Y-00074999D01*
X00940347Y-00154999D02*
X01030347D01*
X00940347D02*
Y-00074999D01*
X01030347D01*
Y-00154999D02*
Y-00074999D01*
X01187346Y-00154999D02*
X01277347D01*
X01187346D02*
Y-00074999D01*
X01277347D01*
Y-00154999D02*
Y-00074999D01*
X-00575153Y-00039999D02*
Y00040001D01*
X-00665154D02*
X-00575153D01*
X-00665154Y-00039999D02*
Y00040001D01*
Y-00039999D02*
X-00575153D01*
X-00418153D02*
X-00328153D01*
X-00418153D02*
Y00040001D01*
X-00328153D01*
Y-00039999D02*
Y00040001D01*
X-00171154Y-00039999D02*
X-00081153D01*
X-00171154D02*
Y00040001D01*
X-00081153D01*
Y-00039999D02*
Y00040001D01*
X00075847Y-00039999D02*
X00165847D01*
X00075847D02*
Y00040001D01*
X00165847D01*
Y-00039999D02*
Y00040001D01*
X00322846Y-00039999D02*
X00412847D01*
X00322846D02*
Y00040001D01*
X00412847D01*
Y-00039999D02*
Y00040001D01*
X00569846Y-00039999D02*
X00659846D01*
X00569846D02*
Y00040001D01*
X00659846D01*
Y-00039999D02*
Y00040001D01*
X00816847Y-00039999D02*
X00906847D01*
X00816847D02*
Y00040001D01*
X00906847D01*
Y-00039999D02*
Y00040001D01*
X01063847Y-00039999D02*
X01153847D01*
X01063847D02*
Y00040001D01*
X01153847D01*
Y-00039999D02*
Y00040001D01*
X-00451653Y00075001D02*
Y00155001D01*
X-00541654D02*
X-00451653D01*
X-00541654Y00075001D02*
Y00155001D01*
Y00075001D02*
X-00451653D01*
X-00294653D02*
X-00204653D01*
X-00294653D02*
Y00155001D01*
X-00204653D01*
Y00075001D02*
Y00155001D01*
X-00047653Y00075001D02*
X00042347D01*
X-00047653D02*
Y00155001D01*
X00042347D01*
Y00075001D02*
Y00155001D01*
X00199347Y00075001D02*
X00289347D01*
X00199347D02*
Y00155001D01*
X00289347D01*
Y00075001D02*
Y00155001D01*
X00446347Y00075001D02*
X00536347D01*
X00446347D02*
Y00155001D01*
X00536347D01*
Y00075001D02*
Y00155001D01*
X00693346Y00075001D02*
X00783346D01*
X00693346D02*
Y00155001D01*
X00783346D01*
Y00075001D02*
Y00155001D01*
X00940347Y00075001D02*
X01030347D01*
X00940347D02*
Y00155001D01*
X01030347D01*
Y00075001D02*
Y00155001D01*
X01187346Y00075001D02*
X01277347D01*
X01187346D02*
Y00155001D01*
X01277347D01*
Y00075001D02*
Y00155001D01*
X00412846Y00650001D02*
Y00730001D01*
X00322846D02*
X00412846D01*
X00322846Y00650001D02*
Y00730001D01*
Y00650001D02*
X00412846D01*
X00569846D02*
X00659847D01*
X00569846D02*
Y00730001D01*
X00659847D01*
Y00650001D02*
Y00730001D01*
X00816846Y00650001D02*
X00906846D01*
X00816846D02*
Y00730001D01*
X00906846D01*
Y00650001D02*
Y00730001D01*
X-00575153Y00190001D02*
Y00270001D01*
X-00665154D02*
X-00575153D01*
X-00665154Y00190001D02*
Y00270001D01*
Y00190001D02*
X-00575153D01*
X-00418153D02*
X-00328153D01*
X-00418153D02*
Y00270001D01*
X-00328153D01*
Y00190001D02*
Y00270001D01*
X-00171154Y00190001D02*
X-00081153D01*
X-00171154D02*
Y00270001D01*
X-00081153D01*
Y00190001D02*
Y00270001D01*
X00075847Y00190001D02*
X00165847D01*
X00075847D02*
Y00270001D01*
X00165847D01*
Y00190001D02*
Y00270001D01*
X00322846Y00190001D02*
X00412847D01*
X00322846D02*
Y00270001D01*
X00412847D01*
Y00190001D02*
Y00270001D01*
X00569846Y00190001D02*
X00659846D01*
X00569846D02*
Y00270001D01*
X00659846D01*
Y00190001D02*
Y00270001D01*
X00816847Y00190001D02*
X00906847D01*
X00816847D02*
Y00270001D01*
X00906847D01*
Y00190001D02*
Y00270001D01*
X01063847Y00190001D02*
X01153847D01*
X01063847D02*
Y00270001D01*
X01153847D01*
Y00190001D02*
Y00270001D01*
X-00451653Y00305001D02*
Y00385001D01*
X-00541654D02*
X-00451653D01*
X-00541654Y00305001D02*
Y00385001D01*
Y00305001D02*
X-00451653D01*
X-00294653D02*
X-00204653D01*
X-00294653D02*
Y00385001D01*
X-00204653D01*
Y00305001D02*
Y00385001D01*
X-00047653Y00305001D02*
X00042347D01*
X-00047653D02*
Y00385001D01*
X00042347D01*
Y00305001D02*
Y00385001D01*
X00199347Y00305001D02*
X00289347D01*
X00199347D02*
Y00385001D01*
X00289347D01*
Y00305001D02*
Y00385001D01*
X00446347Y00305001D02*
X00536347D01*
X00446347D02*
Y00385001D01*
X00536347D01*
Y00305001D02*
Y00385001D01*
X00693346Y00305001D02*
X00783346D01*
X00693346D02*
Y00385001D01*
X00783346D01*
Y00305001D02*
Y00385001D01*
X00940347Y00305001D02*
X01030347D01*
X00940347D02*
Y00385001D01*
X01030347D01*
Y00305001D02*
Y00385001D01*
X01187346Y00305001D02*
X01277347D01*
X01187346D02*
Y00385001D01*
X01277347D01*
Y00305001D02*
Y00385001D01*
X-00328153Y00421251D02*
Y00501251D01*
X-00418153D02*
X-00328153D01*
X-00418153Y00421251D02*
Y00501251D01*
Y00421251D02*
X-00328153D01*
X-00171153D02*
X-00081153D01*
X-00171153D02*
Y00501251D01*
X-00081153D01*
Y00421251D02*
Y00501251D01*
X00075847Y00421251D02*
X00165847D01*
X00075847D02*
Y00501251D01*
X00165847D01*
Y00421251D02*
Y00501251D01*
X00322846Y00421251D02*
X00412847D01*
X00322846D02*
Y00501251D01*
X00412847D01*
Y00421251D02*
Y00501251D01*
X00569847Y00421251D02*
X00659847D01*
X00569847D02*
Y00501251D01*
X00659847D01*
Y00421251D02*
Y00501251D01*
X00816846Y00421251D02*
X00906846D01*
X00816846D02*
Y00501251D01*
X00906846D01*
Y00421251D02*
Y00501251D01*
X01063847Y00421251D02*
X01153847D01*
X01063847D02*
Y00501251D01*
X01153847D01*
Y00421251D02*
Y00501251D01*
X01310847Y00421251D02*
X01400847D01*
X01310847D02*
Y00501251D01*
X01400847D01*
Y00421251D02*
Y00501251D01*
X01434347Y00615001D02*
X01524347D01*
X01434347Y00535001D02*
Y00615001D01*
X01277347Y00535001D02*
Y00615001D01*
X01187347D02*
X01277347D01*
X01187347Y00535001D02*
Y00615001D01*
Y00535001D02*
X01277347D01*
X01030347D02*
Y00615001D01*
X00940347D02*
X01030347D01*
X00940347Y00535001D02*
Y00615001D01*
Y00535001D02*
X01030347D01*
X00783347D02*
Y00615001D01*
X00693347D02*
X00783347D01*
X00693347Y00535001D02*
Y00615001D01*
Y00535001D02*
X00783347D01*
X00536347D02*
Y00615001D01*
X00446347D02*
X00536347D01*
X00446347Y00535001D02*
Y00615001D01*
Y00535001D02*
X00536347D01*
X00289347D02*
Y00615001D01*
X00199347D02*
X00289347D01*
X00199347Y00535001D02*
Y00615001D01*
Y00535001D02*
X00289347D01*
X00042347D02*
Y00615001D01*
X-00047653D02*
X00042347D01*
X-00047653Y00535001D02*
Y00615001D01*
Y00535001D02*
X00042347D01*
X-00294653D02*
X-00204653D01*
X-00294653D02*
Y00615001D01*
X-00204653D01*
Y00535001D02*
Y00615001D01*
M02*
